<?xml version="1.0" encoding="UTF-8"?>
<svg xmlns="http://www.w3.org/2000/svg" xmlns:xlink="http://www.w3.org/1999/xlink" width="535.23pt" height="535.23pt" viewBox="0 0 535.23 535.23" version="1.1">
<g id="surface1">
<path style=" stroke:none;fill-rule:nonzero;fill:rgb(92.89856%,10.998535%,14.099121%);fill-opacity:1;" d="M 267.617188 11.976563 L 267.617188 12 L 267.609375 12 L 267.609375 11.976563 C 197.054688 11.980469 133.148438 40.605469 86.878906 86.878906 C 40.601563 133.152344 11.976563 197.054688 11.976563 267.613281 L 12 267.613281 L 12 267.621094 L 11.976563 267.621094 C 11.976563 338.175781 40.601563 402.078125 86.875 448.351563 C 133.148438 494.628906 197.054688 523.253906 267.613281 523.253906 L 267.613281 523.230469 L 267.617188 523.230469 L 267.617188 523.253906 C 338.175781 523.253906 402.078125 494.628906 448.351563 448.355469 C 494.628906 402.082031 523.253906 338.175781 523.253906 267.617188 L 523.230469 267.617188 L 523.230469 267.613281 L 523.253906 267.613281 C 523.253906 197.054688 494.628906 133.152344 448.355469 86.878906 C 402.078125 40.605469 338.175781 11.976563 267.617188 11.976563 Z M 267.617188 79.105469 L 267.617188 79.128906 L 267.609375 79.128906 L 267.609375 79.105469 C 215.589844 79.105469 168.464844 100.21875 134.339844 134.339844 C 100.214844 168.46875 79.105469 215.589844 79.105469 267.613281 L 79.128906 267.613281 L 79.128906 267.621094 L 79.105469 267.621094 C 79.105469 319.644531 100.214844 366.765625 134.339844 400.890625 C 168.464844 435.015625 215.589844 456.125 267.613281 456.125 L 267.613281 456.101563 L 267.617188 456.101563 L 267.617188 456.125 C 319.644531 456.125 366.765625 435.015625 400.890625 400.890625 C 435.015625 366.765625 456.125 319.640625 456.125 267.617188 L 456.101563 267.617188 L 456.101563 267.613281 L 456.125 267.613281 C 456.125 215.589844 435.015625 168.46875 400.890625 134.34375 C 366.765625 100.21875 319.640625 79.105469 267.617188 79.105469 Z M 267.613281 67.128906 L 267.617188 67.128906 L 267.617188 67.152344 C 322.984375 67.152344 373.105469 89.589844 409.371094 125.859375 C 445.640625 162.125 468.074219 212.246094 468.078125 267.613281 L 468.101563 267.613281 L 468.101563 267.617188 L 468.078125 267.617188 C 468.078125 322.984375 445.640625 373.105469 409.371094 409.375 C 373.105469 445.640625 322.984375 468.078125 267.617188 468.078125 L 267.617188 468.101563 L 267.613281 468.101563 L 267.613281 468.078125 C 212.246094 468.078125 162.125 445.640625 125.855469 409.371094 C 89.589844 373.105469 67.152344 322.984375 67.152344 267.621094 L 67.128906 267.621094 L 67.128906 267.613281 L 67.152344 267.613281 C 67.152344 212.246094 89.589844 162.125 125.855469 125.855469 C 162.125 89.589844 212.242188 67.152344 267.609375 67.152344 L 267.609375 67.128906 Z M 267.613281 0 L 267.617188 0 L 267.617188 0.0234375 C 341.519531 0.0234375 408.421875 29.976563 456.839844 78.394531 C 505.253906 126.808594 535.203125 193.710938 535.203125 267.613281 L 535.230469 267.613281 L 535.230469 267.617188 L 535.203125 267.617188 C 535.203125 341.519531 505.253906 408.421875 456.835938 456.839844 C 408.421875 505.253906 341.519531 535.207031 267.617188 535.207031 L 267.617188 535.230469 L 267.613281 535.230469 L 267.613281 535.207031 C 193.710938 535.207031 126.808594 505.253906 78.390625 456.835938 C 29.976563 408.421875 0.0234375 341.519531 0.0234375 267.621094 L 0 267.621094 L 0 267.613281 L 0.0234375 267.613281 C 0.0234375 193.710938 29.976563 126.808594 78.394531 78.394531 C 126.808594 29.976563 193.710938 0.0273438 267.609375 0.0234375 L 267.609375 0 L 267.613281 0 "/>
<path style=" stroke:none;fill-rule:evenodd;fill:rgb(100%,100%,100%);fill-opacity:1;" d="M 267.644531 447.261719 L 267.613281 447.273438 L 267.585938 447.261719 C 244.15625 438.042969 226.929688 425.449219 198.730469 403.257813 C 170.507813 381.042969 146 343.0625 146 305.289063 L 146 138.445313 L 267.585938 138.277344 L 267.644531 138.277344 L 389.230469 138.445313 L 389.230469 305.289063 C 389.230469 343.0625 364.722656 381.042969 336.496094 403.257813 C 308.300781 425.449219 291.074219 438.042969 267.644531 447.261719 "/>
<path style=" stroke:none;fill-rule:nonzero;fill:rgb(92.89856%,10.998535%,14.099121%);fill-opacity:1;" d="M 261.941406 438.371094 L 261.941406 248.726563 L 152 248.726563 L 152 305.289063 C 152 331.011719 164.125 356.96875 180.96875 377.441406 C 184.246094 381.421875 187.722656 385.214844 191.347656 388.777344 C 194.898438 392.265625 198.609375 395.535156 202.433594 398.542969 L 202.433594 398.546875 C 216.515625 409.628906 227.804688 418.277344 238.226563 425.132813 C 246.148438 430.339844 253.746094 434.644531 261.941406 438.371094 Z M 383.230469 248.726563 L 272.277344 248.726563 L 272.277344 438.828125 C 280.859375 434.992188 288.757813 430.554688 297.003906 425.132813 C 307.425781 418.277344 318.714844 409.628906 332.796875 398.546875 C 344.148438 389.609375 354.859375 378.039063 363.472656 364.964844 C 365.101563 362.488281 366.691406 359.882813 368.242188 357.15625 C 377.425781 340.996094 383.253906 323.066406 383.253906 305.292969 L 383.230469 305.292969 Z M 152 238.390625 L 383.230469 238.390625 L 383.230469 144.410156 L 267.644531 144.253906 L 267.644531 144.277344 L 267.585938 144.277344 L 267.585938 144.253906 L 152 144.410156 Z M 231.664063 435.117188 C 220.570313 427.820313 209.144531 419.078125 195.027344 407.96875 L 195.027344 407.964844 C 190.945313 404.753906 186.902344 401.183594 182.957031 397.308594 C 179.085938 393.5 175.324219 389.394531 171.734375 385.035156 C 153.285156 362.609375 140 333.960938 140 305.289063 L 140 132.476563 L 146 132.46875 L 267.585938 132.300781 L 267.585938 132.277344 L 267.644531 132.277344 L 267.644531 132.300781 L 389.230469 132.46875 L 395.230469 132.476563 L 395.230469 305.292969 L 395.207031 305.292969 C 395.207031 325.289063 388.777344 345.234375 378.648438 363.0625 C 377.058594 365.867188 375.320313 368.691406 373.453125 371.527344 C 364.089844 385.753906 352.476563 398.304688 340.199219 407.96875 C 326.085938 419.078125 314.660156 427.820313 303.5625 435.117188 C 292.265625 442.546875 280.328125 448.960938 267.628906 453.648438 C 254.921875 449.011719 242.949219 442.539063 231.664063 435.117188 "/>
<path style=" stroke:none;fill-rule:nonzero;fill:rgb(92.89856%,10.998535%,14.099121%);fill-opacity:1;" d="M 262.671875 385.042969 C 261.421875 383.730469 259.558594 382.914063 256.980469 382.472656 C 253.65625 381.902344 249.390625 381.960938 244.050781 382.460938 C 242.09375 382.644531 239.042969 382.996094 235.835938 383.367188 C 224.984375 384.617188 212.15625 386.097656 201.378906 384.621094 L 201.335938 384.621094 L 196.265625 383.90625 L 196.265625 364.289063 L 183.933594 364.289063 L 183.933594 349.945313 L 196.265625 349.945313 L 196.265625 334.074219 L 183.933594 334.074219 L 183.933594 319.730469 L 196.265625 319.730469 L 196.265625 299.488281 L 183.933594 299.488281 L 183.933594 285.148438 L 196.265625 285.148438 L 196.265625 267.398438 C 209.054688 267.398438 222.488281 267.125 235.183594 265.664063 C 237.894531 265.351563 240.464844 265.054688 243.628906 264.757813 C 249.972656 264.164063 255.195313 264.121094 259.527344 264.863281 C 262.617188 265.394531 265.292969 266.308594 267.613281 267.679688 C 269.9375 266.308594 272.613281 265.394531 275.703125 264.863281 C 280.035156 264.121094 285.257813 264.164063 291.601563 264.757813 C 294.765625 265.054688 297.335938 265.351563 300.046875 265.664063 C 312.738281 267.125 326.175781 267.398438 338.964844 267.398438 L 338.964844 285.148438 L 351.296875 285.148438 L 351.296875 299.488281 L 338.964844 299.488281 L 338.964844 319.730469 L 351.296875 319.730469 L 351.296875 334.074219 L 338.964844 334.074219 L 338.964844 349.945313 L 351.296875 349.945313 L 351.296875 364.289063 L 338.964844 364.289063 L 338.964844 383.90625 L 333.894531 384.621094 L 333.851563 384.621094 C 323.074219 386.097656 310.242188 384.617188 299.394531 383.367188 C 296.1875 382.996094 293.136719 382.644531 291.179688 382.460938 C 285.839844 381.960938 281.570313 381.902344 278.25 382.472656 C 275.671875 382.914063 273.351563 383.730469 272.101563 385.042969 Z M 283.703125 350.863281 L 283.703125 358.839844 C 286.527344 358.878906 289.152344 358.960938 291.726563 359.140625 C 294.355469 359.324219 297.035156 359.628906 300 360.128906 L 300.085938 360.140625 C 300.667969 360.238281 301.566406 360.371094 302.765625 360.539063 C 303.863281 360.691406 304.757813 360.804688 305.449219 360.882813 C 309.765625 361.363281 314.210938 361.589844 318.570313 361.613281 L 318.570313 353.628906 C 314.398438 353.617188 310.121094 353.402344 305.949219 352.9375 C 304.902344 352.820313 304.066406 352.71875 303.449219 352.632813 C 302.929688 352.5625 302.125 352.433594 301.019531 352.25 L 300.9375 352.234375 C 297.871094 351.71875 294.917969 351.390625 291.882813 351.179688 C 289.191406 350.992188 286.527344 350.90625 283.703125 350.863281 Z M 283.703125 330.28125 L 283.703125 338.257813 C 286.527344 338.296875 289.152344 338.378906 291.726563 338.558594 C 294.355469 338.742188 297.035156 339.046875 300 339.546875 L 300.085938 339.558594 C 300.667969 339.65625 301.566406 339.789063 302.765625 339.957031 C 303.863281 340.109375 304.757813 340.222656 305.449219 340.300781 C 309.765625 340.78125 314.210938 341.007813 318.570313 341.03125 L 318.570313 333.046875 C 314.398438 333.035156 310.121094 332.820313 305.949219 332.355469 C 304.902344 332.238281 304.066406 332.136719 303.449219 332.050781 C 302.929688 331.980469 302.125 331.851563 301.019531 331.667969 L 300.9375 331.652344 C 297.871094 331.136719 294.917969 330.808594 291.882813 330.597656 C 289.191406 330.410156 286.527344 330.324219 283.703125 330.28125 Z M 283.703125 309.699219 L 283.703125 317.675781 C 286.527344 317.714844 289.152344 317.796875 291.726563 317.976563 C 294.355469 318.160156 297.035156 318.464844 300 318.964844 L 300.085938 318.976563 C 300.667969 319.074219 301.566406 319.210938 302.765625 319.375 C 303.863281 319.527344 304.757813 319.640625 305.449219 319.71875 C 309.765625 320.199219 314.210938 320.425781 318.570313 320.449219 L 318.570313 312.464844 C 314.398438 312.453125 310.121094 312.238281 305.949219 311.773438 C 304.902344 311.65625 304.066406 311.554688 303.449219 311.46875 C 302.929688 311.398438 302.125 311.269531 301.019531 311.085938 L 300.9375 311.070313 C 297.871094 310.554688 294.917969 310.226563 291.882813 310.015625 C 289.191406 309.828125 286.527344 309.742188 283.703125 309.699219 Z M 283.703125 297.097656 C 286.527344 297.132813 289.152344 297.214844 291.726563 297.394531 C 294.355469 297.578125 297.035156 297.882813 300 298.382813 L 300.085938 298.394531 C 300.667969 298.492188 301.566406 298.625 302.765625 298.792969 C 303.863281 298.945313 304.757813 299.058594 305.449219 299.136719 C 309.765625 299.617188 314.210938 299.84375 318.570313 299.867188 L 318.570313 291.882813 C 314.398438 291.871094 310.121094 291.65625 305.949219 291.191406 C 304.902344 291.074219 304.066406 290.972656 303.449219 290.886719 C 302.929688 290.816406 302.125 290.6875 301.019531 290.503906 L 300.9375 290.488281 C 297.871094 289.972656 294.917969 289.644531 291.882813 289.433594 C 289.191406 289.246094 286.527344 289.160156 283.703125 289.117188 Z M 251.527344 350.863281 L 251.527344 358.839844 C 248.699219 358.878906 246.074219 358.960938 243.503906 359.140625 C 240.875 359.324219 238.191406 359.628906 235.230469 360.128906 L 235.144531 360.140625 C 234.5625 360.238281 233.660156 360.371094 232.464844 360.539063 C 231.363281 360.691406 230.472656 360.804688 229.777344 360.882813 C 225.464844 361.363281 221.019531 361.589844 216.65625 361.613281 L 216.65625 353.628906 C 220.828125 353.617188 225.105469 353.402344 229.277344 352.9375 C 230.324219 352.820313 231.164063 352.71875 231.777344 352.632813 C 232.300781 352.5625 233.105469 352.433594 234.207031 352.25 L 234.292969 352.234375 C 237.355469 351.71875 240.3125 351.390625 243.347656 351.179688 C 246.035156 350.992188 248.703125 350.90625 251.527344 350.863281 Z M 251.527344 330.28125 L 251.527344 338.257813 C 248.699219 338.296875 246.074219 338.378906 243.503906 338.558594 C 240.875 338.742188 238.191406 339.046875 235.230469 339.546875 L 235.144531 339.558594 C 234.5625 339.65625 233.660156 339.789063 232.464844 339.957031 C 231.363281 340.109375 230.472656 340.222656 229.777344 340.300781 C 225.464844 340.78125 221.019531 341.007813 216.65625 341.03125 L 216.65625 333.046875 C 220.828125 333.035156 225.105469 332.820313 229.277344 332.355469 C 230.324219 332.238281 231.164063 332.136719 231.777344 332.050781 C 232.300781 331.980469 233.105469 331.851563 234.207031 331.667969 L 234.292969 331.652344 C 237.355469 331.136719 240.3125 330.808594 243.347656 330.597656 C 246.035156 330.410156 248.703125 330.324219 251.527344 330.28125 Z M 251.527344 309.699219 L 251.527344 317.675781 C 248.699219 317.714844 246.074219 317.796875 243.503906 317.976563 C 240.875 318.160156 238.191406 318.464844 235.230469 318.964844 L 235.144531 318.976563 C 234.5625 319.074219 233.660156 319.210938 232.464844 319.375 C 231.363281 319.527344 230.472656 319.640625 229.777344 319.71875 C 225.464844 320.199219 221.019531 320.425781 216.65625 320.449219 L 216.65625 312.464844 C 220.828125 312.453125 225.105469 312.238281 229.277344 311.773438 C 230.324219 311.65625 231.164063 311.554688 231.777344 311.46875 C 232.300781 311.398438 233.105469 311.269531 234.207031 311.085938 L 234.292969 311.070313 C 237.355469 310.554688 240.3125 310.226563 243.347656 310.015625 C 246.035156 309.828125 248.703125 309.742188 251.527344 309.699219 Z M 251.527344 297.097656 C 248.699219 297.132813 246.074219 297.214844 243.503906 297.394531 C 240.875 297.578125 238.191406 297.882813 235.230469 298.382813 L 235.144531 298.394531 C 234.5625 298.492188 233.660156 298.625 232.464844 298.792969 C 231.363281 298.945313 230.472656 299.058594 229.777344 299.136719 C 225.464844 299.617188 221.019531 299.84375 216.65625 299.867188 L 216.65625 291.882813 C 220.828125 291.871094 225.105469 291.65625 229.277344 291.191406 C 230.324219 291.074219 231.164063 290.972656 231.777344 290.886719 C 232.300781 290.816406 233.105469 290.6875 234.207031 290.503906 L 234.292969 290.488281 C 237.355469 289.972656 240.3125 289.644531 243.347656 289.433594 C 246.035156 289.246094 248.703125 289.160156 251.527344 289.117188 Z M 207.964844 279.351563 L 207.964844 373.199219 C 216.347656 373.558594 226.089844 372.4375 234.554688 371.460938 C 237.265625 371.148438 239.835938 370.847656 243 370.554688 C 249.34375 369.960938 254.566406 369.917969 258.898438 370.660156 C 262.269531 371.238281 265.148438 372.277344 267.613281 373.863281 C 270.078125 372.277344 272.960938 371.238281 276.332031 370.660156 C 280.664063 369.917969 285.886719 369.960938 292.230469 370.554688 C 295.394531 370.847656 297.964844 371.148438 300.675781 371.460938 C 309.140625 372.4375 318.882813 373.558594 327.269531 373.199219 L 327.269531 279.351563 C 317.921875 279.777344 307.675781 278.597656 298.765625 277.570313 C 295.558594 277.199219 292.507813 276.847656 290.550781 276.664063 C 285.210938 276.164063 280.941406 276.105469 277.621094 276.675781 C 275.042969 277.117188 273.179688 277.933594 271.929688 279.25 L 267.613281 274.945313 L 263.300781 279.25 C 262.050781 277.933594 260.1875 277.117188 257.605469 276.675781 C 254.285156 276.105469 250.019531 276.164063 244.679688 276.664063 C 242.722656 276.847656 239.671875 277.199219 236.464844 277.570313 C 227.554688 278.597656 217.308594 279.777344 207.964844 279.351563 "/>
<path style=" stroke:none;fill-rule:evenodd;fill:rgb(100%,100%,100%);fill-opacity:1;" d="M 208.1875 157.921875 L 238.878906 157.921875 C 238.878906 170.855469 238.878906 186.007813 238.878906 199.496094 C 238.878906 209.453125 217.84375 220.824219 208.214844 226.5 C 198.507813 220.652344 177.546875 209.210938 177.546875 199.496094 C 177.546875 186.007813 177.546875 170.855469 177.546875 157.921875 L 208.1875 157.921875 "/>
<path style=" stroke:none;fill-rule:nonzero;fill:rgb(92.89856%,10.998535%,14.099121%);fill-opacity:1;" d="M 232.878906 186.5 L 183.546875 186.5 L 183.546875 199.496094 C 183.546875 204.894531 198.898438 214.011719 208.242188 219.546875 L 209.578125 218.761719 L 209.578125 218.757813 C 218.882813 213.320313 232.902344 204.847656 232.902344 199.496094 L 232.878906 199.496094 Z M 183.546875 175.105469 L 232.878906 175.105469 L 232.878906 163.898438 L 208.238281 163.898438 L 208.238281 163.921875 L 208.1875 163.921875 L 208.1875 163.898438 L 183.546875 163.898438 Z M 208.1875 151.921875 L 208.238281 151.921875 L 208.238281 151.945313 L 244.878906 151.945313 L 244.878906 199.496094 L 244.855469 199.496094 C 244.851563 211.410156 227.277344 222.308594 215.621094 229.121094 C 212.578125 230.898438 219.261719 226.925781 211.234375 231.65625 L 208.164063 233.464844 L 205.117188 231.632813 C 203.839844 230.859375 203.066406 230.402344 202.253906 229.921875 C 190.699219 223.078125 171.546875 211.730469 171.546875 199.496094 L 171.546875 151.945313 L 208.1875 151.945313 L 208.1875 151.921875 "/>
<path style=" stroke:none;fill-rule:evenodd;fill:rgb(100%,100%,100%);fill-opacity:1;" d="M 326.992188 157.921875 L 357.683594 157.921875 C 357.683594 170.855469 357.683594 186.007813 357.683594 199.496094 C 357.683594 209.453125 336.644531 220.824219 327.019531 226.5 C 317.3125 220.652344 296.351563 209.210938 296.351563 199.496094 C 296.351563 186.007813 296.351563 170.855469 296.351563 157.921875 L 326.992188 157.921875 "/>
<path style=" stroke:none;fill-rule:nonzero;fill:rgb(92.89856%,10.998535%,14.099121%);fill-opacity:1;" d="M 351.683594 198.183594 L 327.019531 181.160156 L 302.351563 198.183594 L 302.351563 199.496094 C 302.351563 204.894531 317.703125 214.011719 327.046875 219.546875 L 328.382813 218.761719 L 328.386719 218.757813 C 337.6875 213.320313 351.703125 204.847656 351.707031 199.496094 L 351.683594 199.496094 Z M 302.351563 184.398438 L 327.019531 167.378906 L 351.683594 184.398438 L 351.683594 163.898438 L 327.042969 163.898438 L 327.042969 163.921875 L 326.992188 163.921875 L 326.992188 163.898438 L 302.351563 163.898438 Z M 326.992188 151.921875 L 327.042969 151.921875 L 327.042969 151.945313 L 363.683594 151.945313 L 363.683594 199.496094 L 363.660156 199.496094 C 363.65625 211.410156 346.082031 222.308594 334.425781 229.121094 C 331.382813 230.898438 338.066406 226.925781 330.039063 231.65625 L 326.96875 233.464844 L 323.925781 231.632813 C 322.644531 230.859375 321.871094 230.402344 321.058594 229.921875 C 309.503906 223.078125 290.351563 211.730469 290.351563 199.496094 L 290.351563 151.945313 L 326.992188 151.945313 L 326.992188 151.921875 "/>
<path style=" stroke:none;fill-rule:nonzero;fill:rgb(92.89856%,10.998535%,14.099121%);fill-opacity:1;" d="M 475.582031 251.78125 L 476.230469 259.175781 L 490.800781 257.898438 L 514.234375 269.148438 L 513.554688 261.335938 L 497.308594 253.816406 L 512.015625 243.753906 L 511.257813 235.09375 L 490.152344 250.507813 Z M 468.496094 211.761719 L 470.539063 218.894531 L 500.496094 210.304688 L 503.421875 220.496094 L 509.023438 218.886719 L 501.136719 191.378906 L 495.53125 192.984375 L 498.453125 203.171875 Z M 458.886719 183.355469 L 461.664063 190.234375 L 495.964844 176.378906 L 493.1875 169.496094 Z M 482.945313 150.476563 C 482.378906 147.6875 481.261719 144.90625 479.671875 142.148438 C 476.410156 136.503906 470.589844 132.460938 463.429688 136.597656 C 452.824219 142.71875 463.457031 155.304688 457.355469 158.828125 C 454.460938 160.496094 451.34375 157.953125 449.9375 155.523438 C 448.480469 152.996094 447.800781 150.023438 447.722656 147.132813 L 441.597656 149.871094 C 442.636719 153.496094 443.078125 155.320313 445.09375 158.808594 C 448.828125 165.28125 454.703125 169.292969 461.726563 165.238281 C 472.46875 159.039063 462.019531 146.34375 467.570313 143.136719 C 471.0625 141.125 473.664063 143.414063 474.9375 145.617188 C 476.238281 147.867188 477.03125 150.40625 477.324219 152.929688 Z M 414.824219 119.121094 L 419.691406 124.722656 L 431.292969 114.640625 L 432.855469 116.4375 C 434.910156 118.800781 434.734375 120.214844 433.351563 122.820313 L 427.550781 133.761719 L 432.976563 140.003906 L 440.003906 126.03125 C 440.753906 124.390625 441.511719 122.191406 440.308594 120.566406 L 440.390625 120.496094 C 443.964844 123.640625 448.597656 123.476563 451.875 120.625 C 459.636719 113.878906 453.210938 106.890625 447.996094 100.890625 L 442.746094 94.851563 Z M 443.214844 104.277344 L 444.8125 106.117188 C 447.246094 108.917969 449.679688 112.28125 446.316406 115.199219 C 442.839844 118.226563 439.691406 115.414063 437.292969 112.652344 L 435.691406 110.8125 Z M 386.769531 95.683594 L 404.0625 109.195313 L 407.652344 104.601563 L 396.210938 95.660156 L 402.605469 87.472656 L 413.003906 95.597656 L 416.59375 91.003906 L 406.191406 82.878906 L 411.804688 75.695313 L 423.164063 84.570313 L 426.757813 79.976563 L 409.550781 66.53125 Z M 356.5625 78.386719 L 364.6875 82.523438 L 392.578125 55.21875 L 386.015625 51.871094 L 364.472656 73.492188 L 364.378906 73.445313 L 369.109375 43.257813 L 362.023438 39.648438 Z M 326.515625 67.140625 L 333.570313 69.433594 L 345.003906 34.25 L 337.945313 31.957031 Z M 281.144531 58.535156 L 288.191406 59.402344 L 291.5625 31.941406 L 291.667969 31.957031 L 302.34375 61.140625 L 311.339844 62.246094 L 315.847656 25.527344 L 308.796875 24.660156 L 305.425781 52.121094 L 305.320313 52.109375 L 294.699219 22.929688 L 285.648438 21.820313 Z M 234.019531 47.105469 C 234.710938 56.992188 240.601563 60.679688 250.066406 60.019531 C 259.527344 59.355469 264.847656 54.886719 264.15625 44.996094 L 262.507813 21.417969 L 255.105469 21.933594 L 256.597656 43.242188 C 257.035156 49.535156 255.316406 53.796875 249.65625 54.195313 C 244 54.589844 241.703125 50.605469 241.261719 44.3125 L 239.773438 23.007813 L 232.371094 23.523438 Z M 187.851563 73.691406 L 208.570313 66.960938 L 206.769531 61.417969 L 193.105469 65.855469 L 183.476563 36.21875 L 176.421875 38.511719 Z M 157.214844 89.367188 L 176.265625 78.808594 L 173.441406 73.710938 L 160.878906 80.671875 L 145.769531 53.414063 L 139.28125 57.015625 Z M 126.746094 111.597656 L 144.035156 98.089844 L 140.445313 93.496094 L 129.003906 102.4375 L 122.609375 94.25 L 133.007813 86.125 L 129.417969 81.53125 L 119.019531 89.65625 L 113.40625 82.472656 L 124.765625 73.597656 L 121.175781 69.003906 L 103.96875 82.445313 Z M 95.945313 146.703125 L 100.414063 141.183594 L 78.914063 123.773438 L 78.980469 123.691406 L 109.386719 130.105469 L 115.089844 123.0625 L 86.339844 99.78125 L 81.871094 105.300781 L 103.371094 122.710938 L 103.304688 122.792969 L 72.933594 116.339844 L 67.195313 123.425781 Z M 75.960938 182.035156 L 79.445313 175.484375 L 65.875 168.269531 L 66.992188 166.160156 C 68.460938 163.402344 69.84375 163.058594 72.777344 163.414063 L 85.070313 164.90625 L 88.949219 157.609375 L 73.386719 156.054688 C 71.589844 155.941406 69.261719 156.023438 68.175781 157.726563 L 68.085938 157.679688 C 69.738281 153.214844 67.921875 148.949219 64.085938 146.90625 C 55.007813 142.082031 50.789063 150.582031 47.054688 157.601563 L 43.296875 164.667969 Z M 51.929688 160.851563 L 53.074219 158.699219 C 54.816406 155.425781 57.085938 151.949219 61.015625 154.039063 C 65.085938 156.203125 63.589844 160.148438 61.871094 163.378906 L 60.726563 165.53125 Z M 44.347656 217.476563 C 38.082031 215.679688 32.496094 210.933594 34.527344 203.851563 C 36.558594 196.769531 43.808594 195.707031 50.078125 197.503906 C 56.496094 199.34375 62.191406 203.898438 60.101563 211.1875 C 58.011719 218.472656 50.769531 219.316406 44.347656 217.476563 Z M 42.21875 224.914063 C 53.117188 228.039063 62.441406 224.207031 65.714844 212.796875 C 68.945313 201.535156 62.960938 193.148438 52.210938 190.066406 C 41.460938 186.984375 32.121094 191.089844 28.921875 202.246094 C 25.679688 213.554688 31.3125 221.785156 42.21875 224.914063 Z M 52.597656 241.351563 C 53.34375 243.171875 53.675781 246.65625 53.421875 249.5625 C 52.734375 257.429688 46.679688 261.578125 39.179688 260.925781 C 31.632813 260.265625 26.238281 255.003906 26.90625 247.402344 C 27.136719 244.761719 27.726563 242.257813 29.554688 239.601563 L 23.371094 238.527344 C 22.078125 241.128906 21.324219 244.304688 21.109375 246.734375 C 20.015625 259.246094 26.414063 267.574219 39.035156 268.679688 C 51.496094 269.769531 58.195313 262.003906 59.238281 250.070313 C 59.484375 247.273438 59.210938 244.320313 58.804688 241.574219 L 52.597656 241.351563 "/>
<path style=" stroke:none;fill-rule:nonzero;fill:rgb(92.89856%,10.998535%,14.099121%);fill-opacity:1;" d="M 471.578125 314.933594 L 466.078125 335.460938 L 485.183594 340.964844 C 485.078125 338.6875 485.335938 336.503906 485.925781 334.304688 C 487.019531 330.210938 489.703125 326.539063 494.3125 327.773438 C 498.867188 328.992188 499.566406 333.351563 498.566406 337.085938 C 497.730469 340.210938 495.996094 342.378906 494.8125 343.929688 L 501.171875 345.796875 C 502.371094 343.59375 503.695313 340.492188 504.4375 337.726563 C 506.90625 328.511719 502.734375 322.347656 496.027344 320.550781 C 486.761719 318.066406 482.664063 323.9375 481.320313 328.953125 C 480.949219 330.335938 480.867188 331.46875 480.800781 332.328125 L 473.214844 330.128906 L 476.902344 316.359375 Z M 472.902344 366.789063 C 474.347656 363.542969 478 363.546875 481.292969 365.011719 C 484.296875 366.347656 486.761719 369.015625 485.359375 372.160156 C 483.875 375.503906 480.464844 375.609375 477.269531 374.183594 C 473.878906 372.675781 471.4375 370.082031 472.902344 366.789063 Z M 460.894531 349.839844 C 459.039063 351.796875 457.617188 353.949219 456.519531 356.417969 C 451.644531 367.359375 460.402344 374.796875 469.554688 378.875 C 477.492188 382.40625 486.222656 383.800781 490.40625 374.40625 C 493.8125 366.757813 490.558594 361.015625 483.246094 357.761719 C 477 354.980469 471.382813 356.65625 468.535156 363.046875 C 467.265625 365.902344 467.398438 368.460938 469.015625 371.089844 L 468.875 371.144531 C 463.925781 368.710938 459.386719 364.308594 461.992188 358.449219 C 463.007813 356.175781 464.40625 354.59375 465.980469 353.148438 Z M 457.59375 408.265625 C 455.03125 406.472656 454.828125 403.804688 455.308594 400.90625 C 457.894531 398.964844 461.121094 397.40625 464.113281 399.503906 C 466.636719 401.265625 466.816406 404.242188 465.113281 406.671875 C 463.410156 409.105469 460.109375 410.027344 457.59375 408.265625 Z M 443.402344 397.941406 C 440.976563 396.238281 441.308594 393.175781 442.859375 390.960938 C 444.472656 388.660156 447.035156 388.320313 449.296875 389.902344 C 451.160156 391.210938 451.886719 394.238281 451.308594 396.359375 C 449.066406 397.894531 446.011719 399.765625 443.402344 397.941406 Z M 449.804688 403.589844 C 449.03125 408.480469 450.035156 412.03125 453.425781 414.402344 C 459.589844 418.722656 465.503906 415.742188 469.636719 409.839844 C 473.832031 403.847656 474.230469 397.53125 468.109375 393.242188 C 464.640625 390.8125 460.757813 390.8125 456.09375 393.5 L 456.050781 393.46875 C 457.046875 389.183594 455.0625 385.269531 452.324219 383.355469 C 447.246094 379.796875 441.65625 383.066406 437.917969 388.40625 C 434.058594 393.921875 433.730469 399.839844 439.15625 403.636719 C 442.328125 405.859375 446.242188 405.625 449.71875 403.527344 Z M 414.761719 429.515625 L 420.816406 430.089844 L 421.359375 422.046875 L 442.253906 441.527344 L 447.3125 436.101563 L 420.257813 410.871094 L 415.773438 415.679688 Z M 404.945313 472.519531 L 410.949219 468.15625 L 406.589844 462.152344 L 400.585938 466.515625 Z M 362.574219 461.191406 L 366.261719 459.3125 C 371.785156 456.5 379.214844 457.890625 382.871094 465.066406 C 386.527344 472.246094 383.285156 479.070313 377.761719 481.886719 L 374.078125 483.765625 Z M 370.113281 492.328125 L 379.132813 487.730469 C 389.238281 482.582031 396.433594 474.632813 389.765625 461.554688 C 383.101563 448.472656 372.441406 449.621094 362.339844 454.769531 L 353.316406 459.363281 Z M 344.835938 502.035156 L 351.808594 499.496094 L 349.269531 492.523438 L 342.300781 495.0625 Z M 298.738281 513.769531 L 306.195313 511.910156 L 307.28125 502.902344 L 321.835938 499.273438 L 326.972656 506.730469 L 334.945313 504.742188 L 311.902344 472.363281 L 303.777344 474.386719 Z M 318.421875 494.117188 L 307.929688 496.730469 L 309.429688 480.625 L 309.53125 480.601563 Z M 247.390625 482.269531 L 251.507813 482.632813 C 257.683594 483.171875 263.25 488.285156 262.546875 496.3125 C 261.84375 504.335938 255.476563 508.410156 249.300781 507.867188 L 245.179688 507.507813 Z M 237.28125 512.667969 L 247.363281 513.550781 C 258.664063 514.539063 268.976563 511.613281 270.257813 496.988281 C 271.535156 482.363281 261.890625 477.6875 250.589844 476.699219 L 240.503906 475.816406 Z M 192.210938 502.878906 L 213.300781 508.925781 L 214.90625 503.324219 L 200.949219 499.320313 L 203.8125 489.335938 L 216.496094 492.972656 L 218.105469 487.367188 L 205.417969 483.730469 L 207.929688 474.96875 L 221.789063 478.941406 L 223.394531 473.335938 L 202.40625 467.316406 Z M 165.835938 458.046875 L 169.519531 459.921875 C 175.046875 462.738281 178.285156 469.566406 174.628906 476.742188 C 170.972656 483.921875 163.542969 485.3125 158.019531 482.496094 L 154.335938 480.621094 Z M 145.074219 482.445313 L 154.097656 487.042969 C 164.203125 492.191406 174.859375 493.335938 181.523438 480.257813 C 188.1875 467.175781 180.996094 459.226563 170.890625 454.078125 L 161.871094 449.484375 Z M 99.632813 450.050781 L 105.226563 454.425781 L 122.261719 432.625 L 122.34375 432.6875 L 116.464844 463.203125 L 123.605469 468.78125 L 146.378906 439.628906 L 140.785156 435.257813 L 123.75 457.058594 L 123.667969 456.992188 L 129.589844 426.511719 L 122.40625 420.898438 Z M 75.964844 402.308594 C 68.15625 408.410156 68.390625 415.355469 74.230469 422.835938 C 80.070313 430.308594 86.753906 432.21875 94.5625 426.117188 L 113.191406 411.5625 L 108.621094 405.714844 L 91.792969 418.867188 C 86.820313 422.75 82.324219 423.707031 78.832031 419.238281 C 75.339844 414.769531 77.359375 410.636719 82.328125 406.753906 L 99.160156 393.605469 L 94.59375 387.757813 Z M 57.683594 358.578125 C 63.542969 355.722656 70.871094 355.507813 74.101563 362.128906 C 77.328125 368.753906 72.652344 374.394531 66.792969 377.253906 C 60.789063 380.179688 53.507813 380.605469 50.1875 373.792969 C 46.863281 366.980469 51.683594 361.507813 57.683594 358.578125 Z M 54.292969 351.625 C 44.097656 356.597656 39.734375 365.683594 44.9375 376.355469 C 50.074219 386.882813 60.132813 389.109375 70.183594 384.210938 C 80.234375 379.304688 84.429688 370.007813 79.339844 359.574219 C 74.183594 349 64.488281 346.652344 54.292969 351.625 Z M 26.90625 325.117188 L 28.828125 332.285156 L 44.492188 328.089844 L 47.730469 340.171875 L 53.359375 338.660156 L 50.125 326.578125 L 58.929688 324.21875 L 62.332031 336.917969 L 67.960938 335.40625 L 62.640625 315.542969 L 26.90625 325.117188 "/>
</g>
</svg>
