<?xml version="1.0" encoding="utf-8"?>
<!-- Generator: Adobe Illustrator 21.0.0, SVG Export Plug-In . SVG Version: 6.00 Build 0)  -->
<svg version="1.1" id="Layer_1" xmlns="http://www.w3.org/2000/svg" xmlns:xlink="http://www.w3.org/1999/xlink" x="0px" y="0px"
	 viewBox="0 0 930 102" style="enable-background:new 0 0 930 102;" xml:space="preserve">
<style type="text/css">
	.st0{fill:#FFCD05;}
	.st1{fill:#FFFFFF;}
</style>
<path class="st0" d="M691.8,9c0-1.1-0.3-1.6-1.1-1.6h-1.5C689,7.3,689,7.3,689,7V6.3c0-0.2,0.1-0.3,0.3-0.3c0.3,0,1.9,0.1,5,0.1
	c2.7,0,4.3-0.1,4.7-0.1c0.2,0,0.3,0.1,0.3,0.2v0.8c0,0.2-0.1,0.3-0.3,0.3h-1.4c-1,0-1.6,0.6-1.6,1.3c0,0.4-0.1,2.3-0.1,4.2v4
	c0,1.6,0,3.9,0.1,5c0.1,1.5,0.4,3,1.1,4c1.1,1.5,2.9,2,4.4,2c1.5,0,3.3-0.6,4.3-1.6c1.2-1.2,1.9-3.1,1.9-5.5v-5.8
	c0-2.6-0.3-5.4-0.4-6.2c-0.1-0.8-0.6-1.4-1.3-1.4h-1.2c-0.2,0-0.3-0.1-0.3-0.2V6.3c0-0.2,0.1-0.3,0.3-0.3c0.3,0,1.8,0.1,4,0.1
	c2,0,3-0.1,3.3-0.1c0.3,0,0.3,0.1,0.3,0.3V7c0,0.2,0,0.3-0.2,0.3h-1.2c-1.2,0-1.3,0.9-1.4,1.3c-0.1,0.4-0.1,4.9-0.1,5.3
	c0,0.5-0.1,6.1-0.2,7.4c-0.2,2.7-1,4.7-2.7,6.2c-1.4,1.2-3.4,2-5.9,2c-1.6,0-3.4-0.3-4.7-0.8c-1.9-0.8-3.2-2.3-3.8-4.3
	c-0.5-1.4-0.6-3.6-0.6-7.8V9z"/>
<path class="st0" d="M713.4,21.8c0.1,0,0.2,0.1,0.2,0.3c0.1,1,0.3,2.3,1.2,3.7c1,1.6,2.7,2.3,4.3,2.3c1.7,0,4.2-1.1,4.2-3.8
	c0-3-1.4-4-4.8-5.2c-1-0.4-3.2-1.3-4.7-2.7c-1.1-1-1.6-2.7-1.6-4.6c0-1.8,0.7-3.3,2.3-4.5c1.3-1.1,2.7-1.6,4.6-1.6
	c2.1,0,3.4,0.5,4.1,0.8c0.3,0.1,0.5,0.1,0.7-0.1l0.4-0.4c0.1-0.1,0.3-0.2,0.5-0.2c0.2,0,0.3,0.2,0.3,0.5c0,0.5,0.5,5.1,0.5,5.4
	c0,0.1-0.1,0.2-0.2,0.2l-0.5,0.2c-0.1,0-0.3,0-0.3-0.2c-0.3-0.9-0.8-2.2-2-3.4C721.5,7.5,720.5,7,719,7c-2.6,0-3.6,2.1-3.6,3.3
	c0,1.1,0.1,2.1,0.9,2.9c0.8,0.8,2.7,1.6,4,2c1.9,0.6,3.4,1.2,4.7,2.5c1,1.1,1.6,2.5,1.6,4.6c0,4-2.6,7.2-6.9,7.2
	c-2.7,0-4.2-0.6-5.5-1.6c-0.4-0.3-0.6-0.4-0.8-0.4c-0.2,0-0.3,0.3-0.5,0.6c-0.2,0.3-0.3,0.4-0.6,0.4c-0.3,0-0.4-0.2-0.4-0.5
	c0.1-0.4,0.5-5.6,0.6-6c0-0.2,0.1-0.3,0.2-0.3L713.4,21.8z"/>
<path class="st0" d="M749.3,23.8c0.1,0.1,0.1,0.2,0.1,0.3c-1.9,2.8-5.1,5.4-9.7,5.4c-4.1,0-6.5-1.2-8.5-3c-2.4-2.1-3.5-5.9-3.5-8.7
	c0-3.2,1-6.2,3.3-8.7c1.7-1.9,4.5-3.4,8.4-3.4c3,0,5.4,0.9,6.5,1.6c0.5,0.3,0.6,0.3,0.6,0l0.3-0.8c0.1-0.2,0.1-0.2,0.5-0.2
	c0.4,0,0.5,0.1,0.5,0.5c0,0.6,0.6,5.8,0.8,6.7c0,0.2,0,0.3-0.1,0.3l-0.6,0.2c-0.2,0.1-0.3-0.1-0.4-0.3c-0.4-1.2-1.2-2.8-2.5-4.2
	C743.6,8,741.9,7,739.4,7c-5.2,0-7.3,4.7-7.3,9.3c0,2,0.6,5.8,3,8.4c2.1,2.3,4,2.5,5.6,2.5c3.6,0,6.4-1.8,7.7-3.8
	c0.2-0.2,0.3-0.3,0.4-0.2L749.3,23.8z"/>
<path class="st1" d="M759.4,28.9c-2.2-0.9-3.3-2.3-3.9-4.3c-0.4-1.5-0.5-3.6-0.5-7.9V9c0-1.1-0.2-1.7-1.2-1.7h-1.5
	c-0.2,0-0.2-0.1-0.2-0.3V6.3c0-0.2,0-0.3,0.3-0.3c0.3,0,1.9,0.1,4.4,0.1c2.5,0,4.1-0.1,4.4-0.1c0.3,0,0.3,0.1,0.3,0.2v0.8
	c0,0.2,0,0.2-0.3,0.2h-1.6c-0.9,0-1.5,0.6-1.6,1.3c0,0.3-0.1,2.6-0.1,4.2V15c0,1.7,0.1,5.8,0.2,6.9c0,1.5,0.3,3,1,4.1
	c1.2,1.8,3.3,2.3,5.1,2.3c1.8,0,3.7-0.6,4.9-1.8c1.3-1.4,1.7-3.3,1.7-5.7v-6.9c0-2.5-0.1-4.3-0.2-5.2c-0.1-0.8-0.6-1.4-1.5-1.4h-1.4
	c-0.2,0-0.2-0.1-0.2-0.3V6.3c0-0.2,0-0.2,0.2-0.2c0.3,0,1.8,0.1,4,0.1c2.2,0,3.3-0.1,3.6-0.1c0.3,0,0.3,0.1,0.3,0.2V7
	c0,0.2,0,0.3-0.2,0.3h-1.3c-1.2,0-1.3,0.9-1.4,1.3c-0.1,0.3-0.1,4.9-0.1,5.4s-0.1,6.1-0.2,7.4c-0.2,2.7-0.9,4.7-2.7,6.2
	c-1.3,1.2-3.3,1.9-6.1,1.9C762.1,29.6,760.5,29.3,759.4,28.9"/>
<path class="st1" d="M787.3,27.3c0,0.5,0.3,0.7,0.7,0.7h1c0.3,0,0.4,0.1,0.4,0.3v0.5c0,0.2-0.1,0.4-0.3,0.4c-0.2,0-1.2-0.1-3.1-0.1
	c-1.7,0-2.7,0.1-2.9,0.1c-0.2,0-0.3-0.1-0.3-0.4v-0.5c0-0.2,0.1-0.3,0.4-0.3h0.9c0.4,0,0.6-0.2,0.6-0.7c0-0.8,0.1-1.9,0.1-2.7v-4.3
	c0-1.3,0-2.2-0.9-2.9c-0.8-0.6-1.6-0.6-2.4-0.6c-0.5,0-1.7,0.2-2.6,1.3c-0.6,0.7-0.7,1.6-0.7,2.2v6.7c0,0.9,0.1,1.1,0.8,1.1h0.8
	c0.3,0,0.3,0.1,0.3,0.3v0.6c0,0.2-0.1,0.3-0.2,0.3c-0.2,0-1.1-0.1-2.8-0.1c-1.7,0-2.7,0.1-2.9,0.1c-0.2,0-0.2-0.1-0.2-0.3v-0.6
	c0-0.2,0.1-0.3,0.3-0.3h0.9c0.4,0,0.6-0.1,0.6-0.6v-7.6c0-1-0.5-1.5-1.3-1.9l-0.3-0.1c-0.2-0.1-0.3-0.2-0.3-0.3v-0.2
	c0-0.2,0.1-0.3,0.3-0.3l2.8-1.6c0.3-0.1,0.5-0.2,0.6-0.2c0.2,0,0.2,0.1,0.3,0.4l0.2,2h0.1c0.9-1.2,2.8-2.4,4.4-2.4
	c1,0,2,0.2,2.8,0.7c1,0.6,1.8,2.3,1.8,3.1L787.3,27.3C787.3,27.3,787.3,27.3,787.3,27.3z"/>
<path class="st1" d="M792.6,19.6c0-1.1-0.2-1.7-1.8-1.9c-0.2,0-0.3-0.1-0.3-0.2v-0.3c0-0.1,0.1-0.2,0.2-0.2c1-0.4,2.3-0.9,3.5-1.6
	c0.3-0.1,0.4-0.2,0.6-0.2c0.2,0,0.2,0.2,0.2,0.4c-0.1,0.5-0.1,2.6-0.1,5.3v3.5c0,1.3,0,2.4,0,2.8c0.1,0.6,0.2,0.8,0.5,0.8h1.5
	c0.3,0,0.3,0.1,0.3,0.3v0.6c0,0.2-0.1,0.3-0.3,0.3c-0.3,0-1.7-0.1-3.1-0.1c-1.9,0-3.1,0.1-3.5,0.1c-0.2,0-0.3-0.1-0.3-0.3v-0.6
	c0-0.2,0.1-0.3,0.3-0.3h1.6c0.4,0,0.5-0.1,0.5-0.6c0-1,0-2,0-2.9L792.6,19.6L792.6,19.6z M791.2,9.8c0-0.8,0.7-1.7,2-1.7
	c1.1,0,1.7,0.9,1.7,1.6c0,0.8-0.6,1.8-1.9,1.8C792.3,11.5,791.2,10.8,791.2,9.8"/>
<path class="st1" d="M804.2,26.1L804.2,26.1c0.6-1.3,2.9-6.8,3.2-8.1c0.2-0.9,0-1.4-0.6-1.4h-0.6c-0.1,0-0.1-0.2-0.1-0.3v-0.6
	c0-0.2,0.1-0.3,0.2-0.3c0.5,0,1.2,0.1,2.6,0.1c1.3,0,2-0.1,2.3-0.1c0.3,0,0.3,0,0.3,0.3v0.6c0,0.2,0,0.3-0.2,0.3h-0.6
	c-0.4,0-0.7,0.1-1,0.4c-0.5,0.5-2.1,4-2.6,5.2c-0.4,1-2.8,6.4-2.9,6.6c-0.3,0.5-0.4,0.7-0.8,0.7c-0.3,0-0.5-0.3-0.7-0.7
	c-0.1-0.2-2.4-6.3-2.5-6.6c-0.1-0.3-1.4-4-1.7-4.5c-0.4-0.9-0.7-1.2-1.3-1.2h-0.6c-0.2,0-0.2-0.1-0.2-0.3v-0.6
	c0-0.2,0.1-0.3,0.4-0.3c0.4,0,0.9,0.1,2.7,0.1c1.7,0,2.6-0.1,2.9-0.1c0.3,0,0.3,0.1,0.3,0.3v0.6c0,0.2,0,0.3-0.2,0.3h-0.6
	c-0.3,0-0.6,0.2-0.6,0.6c0,0.6,0.8,3.3,1,3.8C802.4,21.7,803.8,25.4,804.2,26.1"/>
<path class="st1" d="M813,20.5c-0.1,0.3-0.1,0.8-0.1,1.6c0,3.2,2,5.6,4.6,5.6c2,0,3.4-1.1,3.9-2.2c0.1-0.1,0.2-0.2,0.3-0.2l0.4,0.2
	c0.1,0,0.2,0.1,0,0.5c-0.6,1.3-2.3,3.5-5.2,3.5c-1.8,0-3.9-0.5-5.1-2.3c-1.1-1.6-1.4-2.8-1.4-5.1c0-1.3,0.3-3.4,2-5.1
	c1.4-1.4,3-1.7,4.6-1.7c3.7,0,4.8,3.5,4.8,4.8c0,0.5-0.4,0.5-0.9,0.5C821,20.5,813,20.5,813,20.5z M818.1,19.5
	c0.6,0,0.9-0.2,0.9-0.5c0-0.7-0.4-2.9-2.5-2.9c-1.4,0-2.8,0.9-3.4,3.3H818.1z"/>
<path class="st1" d="M824.9,20.5c0-1.7-0.3-2-1.2-2.5l-0.6-0.3c-0.2-0.1-0.3-0.1-0.3-0.2v-0.2c0-0.1,0.1-0.2,0.3-0.3l3.2-1.7
	c0.2-0.1,0.3-0.1,0.5-0.1c0.2,0,0.2,0.2,0.2,0.4l0.2,2.2h0.1c1-1.5,2.5-2.8,3.9-2.8c1.1,0,1.7,0.7,1.7,1.4c0,0.9-0.8,1.6-1.4,1.6
	c-0.4,0-0.7-0.1-0.9-0.3c-0.3-0.2-0.6-0.3-1.1-0.3c-0.5,0-1.4,0.3-1.9,1.4c-0.2,0.4-0.3,0.9-0.3,1v6.8c0,1,0.2,1.3,0.9,1.3h1.5
	c0.2,0,0.2,0.1,0.2,0.3v0.6c0,0.2,0,0.3-0.2,0.3c-0.2,0-1.7-0.1-3.4-0.1c-2,0-3.4,0.1-3.6,0.1c-0.1,0-0.2-0.1-0.2-0.3v-0.6
	c0-0.2,0.1-0.3,0.4-0.3h1.3c0.5,0,0.7-0.2,0.7-0.6c0-1.1,0-2.2,0-3.9L824.9,20.5C824.9,20.5,824.9,20.5,824.9,20.5z"/>
<path class="st1" d="M833.6,28.5c-0.2-0.1-0.2-0.3-0.2-0.5l-0.5-3.1c0-0.2,0.1-0.2,0.2-0.3l0.4-0.1c0.1,0,0.2,0,0.3,0.2l0.8,1.6
	c0.6,1.2,1.1,2,2.8,2c1.1,0,2.6-0.7,2.6-2.2c0-1.5-0.7-2.3-3.1-3c-1.9-0.5-3.8-1.6-3.8-4.1c0-2.2,2.1-4,4.5-4c1.6,0,2.4,0.4,3,0.7
	c0.5,0.2,0.5,0.4,0.6,0.6l0.5,2.3c0,0.1-0.1,0.2-0.2,0.3l-0.4,0.1c-0.1,0-0.2,0-0.3-0.2l-1.1-1.5c-0.4-0.6-1-1.3-2.3-1.3
	c-1.2,0-2.5,0.7-2.5,2.1c0,1.9,1.5,2.2,3.1,2.7c2.4,0.7,3.9,1.7,3.9,4.1c0,2.6-2.2,4.3-4.9,4.3C835.3,29.5,834,28.8,833.6,28.5"/>
<path class="st1" d="M845.1,19.6c0-1.1-0.2-1.7-1.8-1.9c-0.2,0-0.3-0.1-0.3-0.2v-0.3c0-0.1,0.1-0.2,0.2-0.2c1-0.4,2.3-0.9,3.5-1.6
	c0.3-0.1,0.4-0.2,0.6-0.2c0.2,0,0.2,0.2,0.2,0.4c-0.1,0.5-0.1,2.6-0.1,5.3v3.5c0,1.3,0,2.4,0,2.8c0.1,0.6,0.2,0.8,0.5,0.8h1.5
	c0.3,0,0.3,0.1,0.3,0.3v0.6c0,0.2-0.1,0.3-0.3,0.3c-0.3,0-1.8-0.1-3.1-0.1c-1.9,0-3.1,0.1-3.5,0.1c-0.2,0-0.3-0.1-0.3-0.3v-0.6
	c0-0.2,0.1-0.3,0.3-0.3h1.6c0.4,0,0.5-0.1,0.5-0.6c0-1,0-2,0-2.9L845.1,19.6L845.1,19.6z M843.6,9.8c0-0.8,0.7-1.7,2-1.7
	c1.1,0,1.7,0.9,1.7,1.6c0,0.8-0.6,1.8-1.9,1.8C844.7,11.5,843.6,10.8,843.6,9.8"/>
<path class="st1" d="M853.9,25c0,2.4,1.1,2.8,1.7,2.8c0.7,0,1.7-0.1,2.1-0.4c0.2-0.1,0.3-0.1,0.4,0.1l0.2,0.3c0.1,0.1,0,0.3-0.1,0.4
	c-0.3,0.3-1.7,1.3-3.6,1.3c-1.6,0-3.1-1.5-3.1-2.8c0-1.3,0.1-4.2,0.1-4.6v-0.7c0-0.6,0-2.8,0.1-4.1h-2c-0.3,0-0.5-0.1-0.5-0.4
	c0-0.3,0.2-0.4,0.6-0.6c0.8-0.5,3.3-3,3.7-4.1c0.1-0.3,0.3-0.3,0.5-0.3c0.3,0,0.3,0.2,0.3,0.5l-0.2,3.2h4.5c0.2,0,0.3,0.2,0.2,0.3
	l-0.3,1.1c0,0.2-0.1,0.3-0.3,0.3H854c-0.1,1.5-0.1,3-0.1,4.5L853.9,25C853.9,25,853.9,25,853.9,25z"/>
<path class="st1" d="M859.4,36.2c0-0.7,0.7-1.3,1.5-1.3c0.6,0,1.2,0.3,1.5,0.4c0.2,0,0.5,0,0.7-0.2c0.5-0.6,2.1-4.3,2.6-5.5
	c-0.2-0.8-3.6-10.9-3.9-11.6c-0.4-0.8-0.7-1.4-1.5-1.4h-0.8c-0.2,0-0.3-0.1-0.3-0.3v-0.6c0-0.1,0-0.2,0.3-0.2c0.3,0,1.1,0.1,3,0.1
	c1.7,0,2.7-0.1,3-0.1c0.3,0,0.3,0.1,0.3,0.2v0.7c0,0.2,0,0.3-0.2,0.3H865c-0.4,0-0.5,0.2-0.4,0.7c0.1,0.7,2.3,7.8,2.7,8.6h0.1
	c0.3-0.5,3.1-7.2,3.3-8c0.2-0.8-0.1-1.2-0.6-1.2h-0.5c-0.2,0-0.2-0.1-0.2-0.3v-0.6c0-0.2,0-0.3,0.2-0.3c0.4,0,1.1,0.1,2.7,0.1
	c0.9,0,1.6-0.1,2-0.1c0.2,0,0.2,0.1,0.2,0.3v0.6c0,0.2,0,0.3-0.2,0.3h-0.5c-0.4,0-0.8,0.2-1.1,0.6c-0.7,0.9-2.9,5.8-5.1,10.9
	c-1.6,3.6-2.8,6.6-3.4,7.7c-0.5,0.8-1,2.1-2.8,2.1C860.1,37.9,859.4,37.2,859.4,36.2"/>
<path class="st1" d="M881,27.2c-1.5-1.8-1.8-3-1.8-5.3c0-1.7,0.9-3.7,2.8-5.2c1.7-1.3,3.3-1.6,4.3-1.6c1.8,0,3.6,0.9,4.5,1.9
	c1.5,1.5,2.2,3.2,2.2,5.3c0,3.5-3.2,7.1-7.2,7.1C884.3,29.5,882.3,28.8,881,27.2 M890.3,22c0-3.6-2.6-5.9-4.3-5.9
	c-0.9,0-1.7,0.2-2.5,1c-1.3,1.3-1.7,2.6-1.7,5.1c0,1.8,0.2,3,1.2,4.5c0.7,1.1,1.7,1.7,3.2,1.7C888.8,28.5,890.3,25.5,890.3,22"/>
<path class="st1" d="M896.4,17.1h-2.2c-0.2,0-0.2-0.1-0.2-0.4l0.1-1c0-0.2,0.1-0.2,0.4-0.2h1.9v-0.6c0-3.2,0.9-5.3,2.2-6.7
	c1.7-1.9,3.5-2.6,5.3-2.6c1.5,0,2.9,0.6,2.9,1.8c0,0.8-0.8,1.4-1.4,1.4c-0.3,0-0.6-0.1-0.9-0.2c-0.3-0.2-0.6-0.6-0.8-0.7
	c-0.4-0.5-0.9-0.7-1.5-0.7c-0.8,0-1.7,0.2-2.4,1.1c-1.2,1.5-1.1,4.3-1.1,6.6v0.6h3.9c0.2,0,0.3,0.2,0.2,0.3l-0.2,1.1
	c0,0.1-0.2,0.2-0.4,0.2h-3.6V20c0,3.8,0,6.8,0,7.2c0.1,0.6,0.2,0.8,0.8,0.8h1.8c0.3,0,0.4,0.1,0.4,0.3v0.5c0,0.3-0.1,0.4-0.2,0.4
	c-0.2,0-1.4-0.1-3.9-0.1c-1.8,0-3.4,0.1-3.7,0.1c-0.2,0-0.3-0.1-0.3-0.2v-0.7c0-0.2,0.1-0.2,0.3-0.2h1.6c0.6,0,0.7-0.4,0.8-1.1v-6.1
	V17.1L896.4,17.1z"/>
<path class="st1" d="M693.7,58.3c-0.4-0.3-0.6-0.4-0.7-0.4c-0.2,0-0.3,0.2-0.5,0.5c-0.2,0.4-0.4,0.4-0.6,0.4c-0.2,0-0.4-0.2-0.3-0.5
	c0.1-0.8,0.5-4.9,0.6-5.9c0-0.2,0.1-0.2,0.2-0.2l0.5,0c0.1,0,0.2,0.1,0.2,0.3c0,1,0.1,2.1,1.2,3.8c1,1.5,2.8,2.4,4.5,2.4
	c1.9,0,4.4-1.2,4.4-4.1c0-3.3-2.4-4.6-5-5.5c-1-0.4-3.3-1.2-4.7-2.6c-1.1-1.1-1.6-2.6-1.6-4.7c0-1.6,1-3.2,2-4.1
	c1.2-1.1,2.8-1.6,4.5-1.6c1.8,0,3.3,0.5,3.8,0.8c0.3,0.2,0.5,0.1,0.6,0l0.4-0.4c0.2-0.1,0.3-0.2,0.4-0.2c0.2,0,0.3,0.3,0.3,0.5
	c0,1.1,0.4,4.4,0.5,5.2c0,0.2,0,0.2-0.2,0.3l-0.4,0.1c-0.1,0-0.2,0-0.2-0.1c-0.3-0.9-0.7-2.2-2-3.6c-0.9-0.9-2-1.4-3.5-1.4
	c-2.9,0-3.9,2.1-3.9,3.8c0,0.9,0.2,2,1,2.8c0.9,0.9,2.8,1.7,3.7,1.9c2.2,0.7,4,1.3,5.2,2.7c0.8,1,1.4,2.3,1.4,4.4
	c0,3.8-2.3,7.1-6.6,7.1C696.5,60,695,59.3,693.7,58.3"/>
<path class="st1" d="M708.6,57.6c-1.5-1.8-1.8-3-1.8-5.3c0-1.7,0.9-3.7,2.8-5.2c1.7-1.3,3.3-1.6,4.3-1.6c1.8,0,3.6,0.9,4.5,1.9
	c1.5,1.5,2.2,3.2,2.2,5.3c0,3.5-3.2,7.1-7.2,7.1C711.9,59.9,709.9,59.2,708.6,57.6 M717.9,52.4c0-3.6-2.6-5.9-4.3-5.9
	c-0.9,0-1.7,0.2-2.5,1c-1.3,1.3-1.7,2.6-1.7,5.1c0,1.8,0.2,3,1.2,4.5c0.7,1.1,1.7,1.7,3.2,1.7C716.4,58.9,717.9,55.9,717.9,52.4"/>
<path class="st1" d="M734,52.9c0,1.6,0,3.1,0.1,3.8c0.1,1,0.5,1.1,0.8,1.1c0.2,0,0.7,0,1.1-0.1c0.3-0.1,0.4,0,0.4,0.1l0.1,0.4
	c0,0.2,0,0.3-0.2,0.3l-3.4,1.1c-0.2,0.1-0.4,0.1-0.6,0.1c-0.1,0-0.3-0.1-0.3-0.4l-0.3-1.9h-0.1c-0.9,1.3-2.8,2.3-4.4,2.3
	c-0.9,0-2-0.1-3-1.5c-1.3-1.7-1.3-2.8-1.3-6.3v-3.8c0-0.9-0.5-1.1-1.2-1.2c-0.6,0-0.7-0.1-0.7-0.2v-0.6c0-0.2,0.1-0.3,0.4-0.3h2.9
	c0.2,0,0.3,0,0.5-0.1c0.1,0,0.3,0,0.4,0c0.2,0,0.4,0.2,0.4,0.4c0,0.3-0.1,1.8-0.1,3.7v2.3c0,1.3-0.3,3.4,0.7,4.9
	c0.8,1.2,1.7,1.2,2.6,1.2c0.9,0,2.2-0.8,2.8-1.6c0.1-0.2,0.3-0.6,0.3-0.9v-7.7c-0.1-0.9-0.6-1.1-1.4-1.1c-0.6,0-0.7-0.1-0.7-0.2
	v-0.5c0-0.3,0.1-0.3,0.4-0.3h3c0.2,0,0.4,0,0.6-0.1c0.2,0,0.3,0,0.4,0c0.2,0,0.3,0.2,0.3,0.3c0,0.3-0.2,1.1-0.2,4.3L734,52.9
	L734,52.9L734,52.9z"/>
<path class="st1" d="M741.2,55.4c0,2.4,1.1,2.8,1.7,2.8c0.7,0,1.7-0.1,2.1-0.4c0.2-0.1,0.3-0.1,0.4,0.1l0.2,0.3
	c0.1,0.1,0,0.3-0.1,0.4c-0.3,0.3-1.7,1.3-3.6,1.3c-1.6,0-3.1-1.5-3.1-2.8c0-1.3,0.1-4.2,0.1-4.6v-0.7c0-0.6,0-2.8,0.1-4.1h-2
	c-0.3,0-0.5-0.1-0.5-0.4c0-0.3,0.2-0.4,0.6-0.6c0.8-0.5,3.3-3,3.7-4.1c0.1-0.3,0.3-0.3,0.5-0.3c0.3,0,0.3,0.2,0.3,0.5l-0.2,3.2h4.5
	c0.2,0,0.3,0.2,0.2,0.3l-0.3,1.1c0,0.2-0.1,0.3-0.3,0.3h-4.2c-0.1,1.5-0.1,3-0.1,4.5L741.2,55.4L741.2,55.4z"/>
<path class="st1" d="M748.6,41.8c0-2-0.4-2.3-1.6-2.7l-0.6-0.2c-0.2-0.1-0.2-0.1-0.2-0.2v-0.3c0-0.1,0.1-0.2,0.4-0.3l3.4-1.8
	c0.3-0.1,0.5-0.3,0.7-0.3c0.2,0,0.3,0.3,0.3,0.8c-0.1,0.5-0.1,7.1-0.1,8.7v2.1h0.2c1.1-1.4,3-2.1,4.4-2.1c1.4,0,2.3,0.4,3.2,1.3
	c1.5,1.4,1.4,3,1.4,4.8v1.8c0,1.8,0.1,3.8,0.1,4.4c0,0.4,0.5,0.5,1.2,0.5h0.6c0.3,0,0.4,0.1,0.4,0.3v0.5c0,0.3-0.1,0.4-0.3,0.4
	c-0.2,0-1.3-0.1-3.1-0.1c-1.6,0-2.8,0.1-3,0.1c-0.2,0-0.3-0.1-0.3-0.4v-0.5c0-0.2,0-0.3,0.2-0.3h0.7c0.5,0,1.2-0.1,1.2-0.6
	c0-0.5,0-2.2,0-3.2V52c0-1.8-0.1-3.1-1.1-4c-0.6-0.6-1.3-0.9-2.1-0.9c-0.9,0-2.1,0.3-3,1.4c-0.3,0.4-0.6,1-0.6,1.6v7.1
	c0,1,0.1,1.3,0.7,1.3h1c0.2,0,0.4,0.1,0.4,0.3v0.5c0,0.2-0.1,0.4-0.3,0.4c-0.3,0-1.6-0.1-3.1-0.1c-1.6,0-2.9,0.1-3.1,0.1
	c-0.1,0-0.2-0.1-0.2-0.3v-0.6c0-0.2,0.1-0.3,0.5-0.3h0.7c0.5,0,1-0.1,1.1-0.5c0.1-0.6,0.1-4.2,0.1-6.3L748.6,41.8L748.6,41.8z"/>
<path class="st1" d="M765.1,50.9c-0.1,0.3-0.1,0.8-0.1,1.6c0,3.2,2,5.6,4.6,5.6c2,0,3.4-1.1,3.9-2.2c0.1-0.1,0.2-0.2,0.3-0.2
	l0.4,0.2c0.1,0,0.2,0.1,0,0.5c-0.6,1.3-2.3,3.5-5.1,3.5c-1.8,0-3.9-0.5-5.1-2.3c-1.1-1.7-1.4-2.9-1.4-5.1c0-1.3,0.3-3.4,2-5.2
	c1.4-1.4,3-1.7,4.6-1.7c3.7,0,4.8,3.5,4.8,4.8c0,0.5-0.4,0.5-0.9,0.5L765.1,50.9L765.1,50.9z M770.2,49.9c0.6,0,0.9-0.2,0.9-0.5
	c0-0.7-0.4-2.9-2.5-2.9c-1.4,0-2.8,0.9-3.4,3.3L770.2,49.9L770.2,49.9z"/>
<path class="st1" d="M777.2,50.9c0-1.7-0.3-2-1.2-2.5l-0.6-0.3c-0.2-0.1-0.3-0.1-0.3-0.2v-0.2c0-0.1,0.1-0.2,0.3-0.3l3.2-1.7
	c0.2-0.1,0.3-0.1,0.5-0.1c0.2,0,0.2,0.2,0.2,0.4l0.2,2.2h0.1c1-1.5,2.5-2.8,3.9-2.8c1.1,0,1.7,0.7,1.7,1.4c0,0.9-0.8,1.6-1.4,1.6
	c-0.4,0-0.7-0.1-0.9-0.3c-0.3-0.2-0.6-0.3-1.1-0.3c-0.5,0-1.4,0.3-1.9,1.4c-0.2,0.4-0.3,0.9-0.3,1v6.8c0,1,0.2,1.3,0.9,1.3h1.5
	c0.2,0,0.2,0.1,0.2,0.3v0.6c0,0.2,0,0.3-0.2,0.3c-0.2,0-1.7-0.1-3.4-0.1c-2,0-3.4,0.1-3.6,0.1c-0.1,0-0.2-0.1-0.2-0.3v-0.5
	c0-0.2,0.1-0.3,0.4-0.3h1.3c0.5,0,0.7-0.2,0.7-0.6c0-1.1,0-2.2,0-3.9L777.2,50.9L777.2,50.9z"/>
<path class="st1" d="M799,57.7c0,0.5,0.3,0.7,0.7,0.7h1c0.3,0,0.4,0.1,0.4,0.3v0.5c0,0.2-0.1,0.4-0.3,0.4c-0.2,0-1.2-0.1-3.1-0.1
	c-1.7,0-2.7,0.1-2.9,0.1c-0.2,0-0.3-0.1-0.3-0.4v-0.5c0-0.2,0.1-0.3,0.4-0.3h0.9c0.4,0,0.6-0.2,0.6-0.7c0-0.8,0.1-1.9,0.1-2.7v-4.3
	c0-1.3,0-2.2-0.9-2.9c-0.8-0.6-1.6-0.6-2.4-0.6c-0.5,0-1.7,0.2-2.6,1.3c-0.6,0.7-0.7,1.6-0.7,2.2v6.7c0,0.9,0.1,1.1,0.8,1.1h0.8
	c0.3,0,0.3,0.1,0.3,0.3v0.5c0,0.2-0.1,0.3-0.2,0.3c-0.2,0-1.1-0.1-2.8-0.1c-1.6,0-2.7,0.1-2.9,0.1c-0.2,0-0.2-0.1-0.2-0.3v-0.6
	c0-0.2,0.1-0.3,0.3-0.3h0.9c0.4,0,0.6-0.1,0.6-0.6v-7.6c0-1-0.5-1.5-1.3-1.9l-0.3-0.1c-0.2-0.1-0.3-0.2-0.3-0.3v-0.2
	c0-0.2,0.1-0.3,0.3-0.3l2.8-1.6c0.3-0.1,0.5-0.2,0.6-0.2c0.2,0,0.2,0.1,0.3,0.4l0.2,2h0.1c0.9-1.2,2.8-2.4,4.4-2.4
	c1,0,2,0.2,2.8,0.7c1,0.6,1.8,2.3,1.8,3.1L799,57.7L799,57.7z"/>
<path class="st1" d="M811.4,57c-2.3-2.2-3.5-6-3.5-9.1c0-3,1-6.1,3.3-8.6c1.7-1.8,4.6-3.3,8.1-3.3c2.9,0,5.4,1.1,6.5,1.8
	c0.4,0.3,0.6,0.2,0.6,0l0.3-0.9c0.1-0.2,0.1-0.2,0.4-0.2c0.3,0,0.4,0.1,0.4,0.5c0,0.6,0.6,5.4,0.8,6.3c0,0.2,0,0.3-0.1,0.3l-0.5,0.1
	c-0.2,0-0.2,0-0.3-0.3c-0.5-1.1-1.2-2.6-2.5-4c-1.4-1.4-3.1-2.5-5.6-2.5c-5.8,0-8.1,5.1-8.1,9.9c0,1.9,0.6,5.5,3.1,8.3
	c2.2,2.5,4.1,2.7,6.2,2.7c3.7,0,6.5-2,8-4.1c0.1-0.2,0.2-0.2,0.3-0.1l0.4,0.3c0.1,0.1,0.2,0.1,0.1,0.3c-1.9,2.8-5.1,5.4-9.7,5.4
	C815.8,60,813.4,58.8,811.4,57"/>
<path class="st1" d="M839.7,55.6c0,1.8,0.4,2.4,1,2.4c0.5,0,1-0.3,1.1-0.5c0.1-0.2,0.2-0.2,0.3-0.1l0.3,0.3c0.1,0.1,0.2,0.3,0,0.6
	c-0.3,0.5-0.9,1.6-2.5,1.6c-1.2,0-2-0.8-2.3-2.2h-0.1c-0.7,0.8-1.8,1.5-3.2,2c-0.6,0.2-1.2,0.2-1.9,0.2c-0.8,0-1.9-0.6-1.9-2.7
	c0-1.5,0.7-2.8,3.2-3.9c1.5-0.6,3.1-1.4,3.7-1.9v-2.1c-0.1-0.5-0.1-1.4-0.5-1.8c-0.4-0.4-1-0.7-1.9-0.7c-0.6,0-1.7,0.3-2.1,0.7
	c-0.5,0.4-0.2,0.9-0.2,1.5c0,1.1-0.4,1.8-1.7,1.8c-0.5,0-0.8-0.3-0.8-1c0-1,0.9-2.3,2.2-3c1.4-0.8,2.5-1.1,4-1.1
	c1.5,0,2.1,0.5,2.6,0.9c0.7,0.7,0.7,1.4,0.7,2.3v5L839.7,55.6L839.7,55.6z M837.4,52.3c-1.2,0.9-4.3,1.5-4.3,4.2
	c0,1.2,0.7,1.8,1.7,1.8c0.9,0,2.7-1.1,2.7-2V52.3z"/>
<path class="st1" d="M847.9,49.8c0,1.7,0,6.6,0,7.6c0,0.6,0.2,1,0.8,1h1.5c0.3,0,0.4,0.1,0.4,0.3v0.6c0,0.2-0.1,0.3-0.2,0.3
	c-0.2,0-1.7-0.1-3.7-0.1c-2.1,0-3.4,0.1-3.7,0.1c-0.2,0-0.2-0.1-0.2-0.3v-0.6c0-0.2,0.1-0.3,0.4-0.3h1.6c0.4,0,0.7-0.2,0.7-0.8
	c0-1,0-6.6,0-8.5v-2c0-2.3,0-5.2-0.1-6.1c-0.1-1.1-0.6-1.6-1.6-1.9l-0.6-0.2c-0.2-0.1-0.2-0.1-0.2-0.2v-0.3c0-0.1,0.1-0.2,0.3-0.2
	c1.1-0.5,2.6-1.1,3.8-1.9c0.3-0.2,0.5-0.3,0.7-0.3c0.2,0,0.3,0.2,0.3,0.6c0,1.8-0.1,8.5-0.1,10.3V49.8L847.9,49.8z"/>
<path class="st1" d="M853.8,50c0-1.1-0.2-1.7-1.8-1.9c-0.2,0-0.3-0.1-0.3-0.2v-0.3c0-0.1,0.1-0.2,0.2-0.2c1-0.4,2.3-0.9,3.5-1.6
	c0.3-0.1,0.4-0.2,0.6-0.2c0.2,0,0.2,0.2,0.2,0.4c-0.1,0.5-0.1,2.6-0.1,5.3v3.5c0,1.3,0,2.4,0,2.8c0.1,0.6,0.2,0.8,0.5,0.8h1.5
	c0.3,0,0.3,0.1,0.3,0.3v0.6c0,0.2-0.1,0.3-0.3,0.3c-0.3,0-1.8-0.1-3.1-0.1c-1.9,0-3.1,0.1-3.5,0.1c-0.2,0-0.3-0.1-0.3-0.3v-0.6
	c0-0.2,0.1-0.3,0.3-0.3h1.6c0.4,0,0.5-0.1,0.5-0.6c0-1,0-2,0-2.9L853.8,50L853.8,50L853.8,50z M852.3,40.2c0-0.8,0.7-1.7,2-1.7
	c1.1,0,1.7,0.9,1.7,1.6c0,0.8-0.6,1.8-1.9,1.8C853.4,41.8,852.3,41.2,852.3,40.2"/>
<path class="st1" d="M862,47.5h-2.2c-0.2,0-0.2-0.1-0.2-0.4l0.1-1c0-0.2,0.1-0.2,0.4-0.2h1.9v-0.6c0-3.2,0.9-5.3,2.2-6.7
	c1.7-1.9,3.5-2.6,5.3-2.6c1.5,0,2.9,0.6,2.9,1.8c0,0.8-0.8,1.4-1.4,1.4c-0.3,0-0.6-0.1-0.9-0.2c-0.3-0.2-0.6-0.6-0.8-0.7
	c-0.4-0.5-0.9-0.7-1.5-0.7c-0.8,0-1.7,0.2-2.4,1.1c-1.2,1.5-1.1,4.3-1.1,6.6V46h3.9c0.2,0,0.3,0.2,0.2,0.3l-0.2,1.1
	c0,0.1-0.2,0.2-0.4,0.2h-3.6v2.9c0,3.8,0,6.8,0,7.2c0.1,0.5,0.2,0.8,0.8,0.8h1.8c0.3,0,0.4,0.1,0.4,0.3v0.5c0,0.3-0.1,0.4-0.2,0.4
	c-0.2,0-1.4-0.1-3.9-0.1c-1.8,0-3.4,0.1-3.7,0.1c-0.2,0-0.3-0.1-0.3-0.2v-0.7c0-0.2,0.1-0.2,0.3-0.2h1.6c0.6,0,0.7-0.4,0.8-1.1v-6.1
	L862,47.5L862,47.5z"/>
<path class="st1" d="M869.7,57.6c-1.5-1.8-1.8-3-1.8-5.3c0-1.7,0.9-3.7,2.8-5.2c1.7-1.3,3.3-1.6,4.3-1.6c1.8,0,3.6,0.9,4.5,1.9
	c1.5,1.5,2.2,3.2,2.2,5.3c0,3.5-3.2,7.1-7.2,7.1C873,59.9,871,59.2,869.7,57.6 M879,52.4c0-3.6-2.6-5.9-4.3-5.9
	c-0.9,0-1.7,0.2-2.5,1c-1.3,1.3-1.7,2.6-1.7,5.1c0,1.8,0.2,3,1.2,4.5c0.7,1.1,1.7,1.7,3.2,1.7C877.4,58.9,879,55.9,879,52.4"/>
<path class="st1" d="M884.3,50.9c0-1.7-0.3-2-1.2-2.5l-0.6-0.3c-0.2-0.1-0.3-0.1-0.3-0.2v-0.2c0-0.1,0.1-0.2,0.3-0.3l3.2-1.7
	c0.2-0.1,0.3-0.1,0.5-0.1c0.2,0,0.2,0.2,0.2,0.4l0.2,2.2h0.1c1-1.5,2.5-2.8,3.9-2.8c1.1,0,1.7,0.7,1.7,1.4c0,0.9-0.8,1.6-1.4,1.6
	c-0.4,0-0.7-0.1-0.9-0.3c-0.3-0.2-0.6-0.3-1.1-0.3c-0.5,0-1.4,0.3-1.9,1.4c-0.2,0.4-0.3,0.9-0.3,1v6.8c0,1,0.2,1.3,0.9,1.3h1.5
	c0.2,0,0.2,0.1,0.2,0.3v0.6c0,0.2,0,0.3-0.2,0.3c-0.2,0-1.7-0.1-3.4-0.1c-2,0-3.4,0.1-3.6,0.1c-0.1,0-0.2-0.1-0.2-0.3v-0.5
	c0-0.2,0.1-0.3,0.4-0.3h1.3c0.5,0,0.7-0.2,0.7-0.6c0-1.1,0-2.2,0-3.9L884.3,50.9L884.3,50.9z"/>
<path class="st1" d="M906.1,57.7c0,0.5,0.3,0.7,0.7,0.7h1c0.3,0,0.4,0.1,0.4,0.3v0.5c0,0.2-0.1,0.4-0.3,0.4c-0.2,0-1.2-0.1-3.1-0.1
	c-1.7,0-2.7,0.1-2.9,0.1c-0.2,0-0.3-0.1-0.3-0.4v-0.5c0-0.2,0.1-0.3,0.4-0.3h0.9c0.4,0,0.6-0.2,0.6-0.7c0-0.8,0.1-1.9,0.1-2.7v-4.3
	c0-1.3,0-2.2-0.9-2.9c-0.8-0.6-1.6-0.6-2.4-0.6c-0.5,0-1.7,0.2-2.6,1.3c-0.6,0.7-0.7,1.6-0.7,2.2v6.7c0,0.9,0.1,1.1,0.8,1.1h0.8
	c0.3,0,0.3,0.1,0.3,0.3v0.5c0,0.2-0.1,0.3-0.2,0.3c-0.2,0-1.1-0.1-2.8-0.1c-1.7,0-2.7,0.1-2.9,0.1c-0.2,0-0.2-0.1-0.2-0.3v-0.6
	c0-0.2,0.1-0.3,0.3-0.3h0.9c0.4,0,0.6-0.1,0.6-0.6v-7.6c0-1-0.5-1.5-1.3-1.9l-0.3-0.1c-0.2-0.1-0.3-0.2-0.3-0.3v-0.2
	c0-0.2,0.1-0.3,0.3-0.3l2.8-1.6c0.3-0.1,0.5-0.2,0.6-0.2c0.2,0,0.2,0.1,0.3,0.4l0.2,2h0.1c0.9-1.2,2.8-2.4,4.4-2.4
	c1,0,2,0.2,2.8,0.7c1,0.6,1.8,2.3,1.8,3.1L906.1,57.7L906.1,57.7z"/>
<path class="st1" d="M911.4,50c0-1.1-0.2-1.7-1.8-1.9c-0.2,0-0.3-0.1-0.3-0.2v-0.3c0-0.1,0.1-0.2,0.2-0.2c1-0.4,2.3-0.9,3.5-1.6
	c0.3-0.1,0.4-0.2,0.6-0.2c0.2,0,0.2,0.2,0.2,0.4c-0.1,0.5-0.1,2.6-0.1,5.3v3.5c0,1.3,0,2.4,0,2.8c0.1,0.6,0.2,0.8,0.5,0.8h1.5
	c0.3,0,0.3,0.1,0.3,0.3v0.6c0,0.2-0.1,0.3-0.3,0.3c-0.3,0-1.8-0.1-3.1-0.1c-1.9,0-3.1,0.1-3.5,0.1c-0.2,0-0.3-0.1-0.3-0.3v-0.6
	c0-0.2,0.1-0.3,0.3-0.3h1.6c0.4,0,0.5-0.1,0.5-0.6c0-1,0-2,0-2.9L911.4,50L911.4,50L911.4,50z M910,40.2c0-0.8,0.7-1.7,2-1.7
	c1.1,0,1.7,0.9,1.7,1.6c0,0.8-0.6,1.8-1.9,1.8C911,41.8,910,41.2,910,40.2"/>
<path class="st1" d="M926.4,55.6c0,1.8,0.4,2.4,1,2.4c0.5,0,1-0.3,1.1-0.5c0.1-0.2,0.2-0.2,0.3-0.1l0.3,0.3c0.1,0.1,0.2,0.3,0,0.6
	c-0.3,0.5-0.9,1.6-2.5,1.6c-1.2,0-2-0.8-2.3-2.2h-0.1c-0.7,0.8-1.7,1.5-3.2,2c-0.6,0.2-1.2,0.2-1.9,0.2c-0.8,0-1.9-0.6-1.9-2.7
	c0-1.5,0.7-2.8,3.2-3.9c1.5-0.6,3.1-1.4,3.7-1.9v-2.1c-0.1-0.5-0.1-1.4-0.5-1.8c-0.4-0.4-1-0.7-1.9-0.7c-0.6,0-1.7,0.3-2.1,0.7
	c-0.5,0.4-0.2,0.9-0.2,1.5c0,1.1-0.4,1.8-1.7,1.8c-0.5,0-0.8-0.3-0.8-1c0-1,0.9-2.3,2.2-3c1.4-0.8,2.5-1.1,4-1.1
	c1.5,0,2.1,0.5,2.6,0.9c0.7,0.7,0.7,1.4,0.7,2.3v5L926.4,55.6L926.4,55.6z M924,52.3c-1.2,0.9-4.3,1.5-4.3,4.2
	c0,1.2,0.7,1.8,1.7,1.8c0.9,0,2.7-1.1,2.7-2V52.3z"/>
<g>
	<path class="st1" d="M677.1,40.2c-3,7.3-8.8,17.4-19.2,23.7c-10.4-6.3-16.2-16.4-19.2-23.7c-2.8-6.8-3.8-12.5-4.1-14.2
		c1.2-0.7,2.5-1,3.9-1h0c1,0,2.4,0.2,3.2,0.4l0.4,0.1c0.4,0.1,0.8,0.2,1.3,0.4c1.5,0.4,3.3,0.9,4.6,0.9h0c1.5,0,3.8-0.2,6.3-1.1
		c0.7-0.3,1.6-0.5,2.6-0.7l0.8-0.1c0,0,0,0,0,0l1.3,0.1c0.8,0.1,1.5,0.4,2.2,0.6c2.6,0.9,4.9,1.1,6.3,1.1h0c0.9,0,2-0.2,3.6-0.6
		c0.7-0.2,1.3-0.4,1.9-0.6l0.7-0.2c0.8-0.2,2.2-0.4,3.2-0.4h0c1.4,0,2.7,0.3,3.9,1C680.9,27.6,679.9,33.4,677.1,40.2 M634,15.1
		l15.1,3.3c-0.1,0.2-0.3,0.5-0.4,0.7l-14.8-2C634,16.5,634,15.8,634,15.1 M634.5,9.6l15.7,7.3c-0.3,0.3-0.6,0.7-0.8,1.1l-15.3-4.3
		C634.2,12.3,634.3,11,634.5,9.6 M634.9,7.2c0.6,0.1,1.8,0.4,3.4,0.5l12.8,8.3c-0.2,0.2-0.3,0.3-0.5,0.5L634.8,8
		C634.8,7.8,634.9,7.5,634.9,7.2 M641.7,7.9c1.6,0,3.2-0.1,4.6-0.4l6.4,7.2c-0.5,0.3-0.9,0.6-1.4,1l-10.6-7.8
		C641.1,7.9,641.4,7.9,641.7,7.9 M650,6.5l4.3,7.5c-0.3,0.1-0.6,0.2-0.8,0.4L648,7.2C648.7,7,649.3,6.8,650,6.5 M655.6,3.8l1.3,9.6
		c-0.7,0.1-1.4,0.2-2.1,0.4L651.3,6C653.1,5.3,654.5,4.5,655.6,3.8 M657.9,2.2c0.3,0.3,0.6,0.5,1,0.8l-0.6,10.5c-0.1,0-0.2,0-0.4,0
		h0c-0.1,0-0.3,0-0.4,0l-0.6-10.5C657.4,2.6,657.7,2.3,657.9,2.2 M660.1,3.8c1.5,1,3,1.7,4.3,2.2l-3.6,7.8c-0.7-0.2-1.4-0.3-2.1-0.4
		L660.1,3.8z M665.7,6.5c0.9,0.3,1.6,0.5,2,0.6l-5.4,7.3c-0.3-0.1-0.6-0.3-0.9-0.4L665.7,6.5z M669.4,7.5c1.6,0.3,3.3,0.4,4.9,0.4
		c0.2,0,0.4,0,0.6,0l-10.7,7.8c-0.4-0.4-0.9-0.7-1.4-0.9L669.4,7.5z M677.4,7.7c1.6-0.2,2.8-0.4,3.4-0.6c0.1,0.3,0.1,0.5,0.2,0.8
		l-15.8,8.5c-0.2-0.2-0.3-0.3-0.5-0.5L677.4,7.7z M681.2,9.5c0.2,1.4,0.4,2.8,0.5,4.2L666.4,18c-0.3-0.4-0.6-0.8-0.9-1.2L681.2,9.5z
		 M681.8,17.2l-14.8,2c-0.1-0.2-0.2-0.5-0.4-0.7l15.1-3.3C681.8,15.8,681.8,16.5,681.8,17.2 M677.3,20.4c-0.9,0-2.5,0.2-3.5,0.5
		l-0.7,0.2c-0.6,0.2-1.3,0.4-2,0.6l0,0c-0.9,0.2-2.2,0.6-3.3,0.6c-0.1-0.9-0.3-1.7-0.7-2.5l14.6-1.1c0,1-0.1,1.9-0.1,2.8
		C680.4,20.7,678.8,20.4,677.3,20.4 M677.3,22.2L677.3,22.2c-1,0-2.5,0.2-3.5,0.5l-0.7,0.2c-0.6,0.2-1.3,0.4-2,0.6l0.1,0.4l-0.1-0.4
		c-1,0.3-2.4,0.6-3.4,0.6h0c-1.4,0-3.6-0.2-6-1c-0.6-0.2-1.5-0.5-2.3-0.6c-0.5-0.1-1-0.1-1.4-0.1c-0.3,0-0.7,0-1,0.1
		c-1,0.1-1.9,0.4-2.7,0.7c-2.5,0.9-4.7,1.1-6.1,1.1h0c-1.2,0-2.9-0.4-4.4-0.9l-1.7-0.5c-0.9-0.3-2.3-0.4-3.4-0.4h0
		c-1.5,0-2.9,0.4-4.3,1c0-0.3-0.1-0.6-0.1-0.9c1.3-0.7,2.9-1.1,4.4-1.1h0c1,0,2.4,0.2,3.2,0.4l1.7,0.5l0.1-0.4l-0.1,0.4
		c1.6,0.5,3.3,0.9,4.6,0.9h0c1.5,0,3.8-0.2,6.3-1.1c0.7-0.3,1.6-0.5,2.5-0.7l0.9-0.1l1.3,0.1c0.8,0.1,1.6,0.4,2.2,0.6
		c2.6,0.9,4.9,1.1,6.3,1.1h0c0.9,0,2-0.2,3.6-0.6l0,0c0.7-0.2,1.4-0.4,2-0.6l0.7-0.2c0.8-0.2,2.2-0.4,3.2-0.4h0c1.5,0,3,0.4,4.3,1
		c0,0.4-0.1,0.7-0.1,1C680.2,22.6,678.7,22.2,677.3,22.2 M657.9,20.4L657.9,20.4L657.9,20.4c-0.3,0-0.7,0-1,0.1
		c-1,0.1-2,0.4-2.7,0.7c-2.1,0.7-4,1-5.4,1c0.6-4.6,4.5-7.9,9.1-8h0c4.6,0,8.5,3.4,9.1,7.9c-1.4-0.1-3.3-0.3-5.3-1
		c-0.6-0.2-1.5-0.5-2.3-0.6l0,0l0,0C658.9,20.4,658.4,20.4,657.9,20.4 M634,18.6l14.6,1.1c-0.3,0.8-0.5,1.6-0.7,2.5
		c-1.2,0-2.7-0.4-4.1-0.8l-1.7-0.5c-0.9-0.3-2.3-0.4-3.4-0.4h0c-1.5,0-3.1,0.4-4.5,1C634,20.6,634,19.6,634,18.6 M677.3,24.1
		L677.3,24.1c-1,0-2.5,0.2-3.5,0.5l-0.7,0.2c-0.6,0.2-1.3,0.4-1.9,0.6l0.1,0.4l-0.1-0.4c-1.5,0.4-2.6,0.6-3.4,0.6h0
		c-1.4,0-3.6-0.2-6-1c-0.7-0.2-1.5-0.5-2.3-0.6c-0.9-0.1-1.6-0.2-2.4-0.1c-1,0.1-2,0.4-2.7,0.7c-2.5,0.9-4.7,1.1-6.1,1.1h0
		c-1.2,0-2.9-0.4-4.4-0.9l-0.1,0.4l0.1-0.4c-0.4-0.1-0.9-0.2-1.3-0.4l-0.4-0.1c-0.9-0.3-2.3-0.4-3.4-0.4h0c-1.4,0-2.7,0.3-4,1
		c0-0.2-0.1-0.5-0.1-0.9c1.3-0.7,2.7-1.1,4.2-1.1h0c1,0,2.4,0.2,3.2,0.4l1.7,0.5l0.1-0.4l-0.1,0.4c1.6,0.5,3.3,0.9,4.6,0.9h0
		c1.5,0,3.8-0.2,6.3-1.1c0.7-0.3,1.6-0.5,2.5-0.7l0.8-0.1c0,0,0,0,0.1,0l1.3,0.1c0.8,0.1,1.6,0.4,2.2,0.6c2.6,0.9,4.9,1.1,6.3,1.1h0
		c0.9,0,2-0.2,3.6-0.6c0.7-0.2,1.4-0.4,2-0.6l0.7-0.2c0.8-0.2,2.2-0.4,3.2-0.4h0c1.5,0,2.9,0.4,4.2,1.1c0,0.4-0.1,0.7-0.1,0.9
		C680,24.4,678.7,24.1,677.3,24.1 M682.6,15l-0.1-1.5c-0.1-1.4-0.3-2.8-0.5-4.3l-0.2-1c-0.1-0.5-0.2-1.1-0.3-1.6l-0.1-0.5L681,6.2
		c0,0-0.7,0.2-1.9,0.4L676.2,7C675.6,7,675,7,674.3,7c-1.7,0-3.4-0.2-5-0.4l-1-0.2c0,0,0,0-0.1,0c0,0-0.8-0.2-2.1-0.6l-1.4-0.5
		c-1.4-0.5-3-1.3-4.6-2.4l-1.3-1c-0.3-0.2-0.5-0.4-0.7-0.6L657.9,1l-0.3,0.3c0,0-0.2,0.2-0.7,0.6l-1.4,1c-1.1,0.7-2.7,1.6-4.6,2.4
		l-1.4,0.5c-0.7,0.2-1.3,0.4-2.1,0.6c0,0,0,0-0.1,0l-1.2,0.3c-1.4,0.3-2.9,0.4-4.5,0.4c-0.8,0-1.5,0-2.2-0.1l-2.9-0.3
		c-1.2-0.2-1.9-0.4-1.9-0.4l-0.4-0.1l-0.1,0.4c-0.1,0.4-0.2,0.9-0.3,1.3l-0.2,1.3c-0.2,1.4-0.4,2.9-0.5,4.2l-0.1,1.5
		c0,0.7,0,1.4,0,2.1l0,1.5c0.1,4.1,0.6,6.9,0.6,7.1c0,0.3,0.9,6.9,4.2,14.9c3.1,7.5,9,17.7,19.6,24.1l0.5,0.3l0.5-0.3
		c10.6-6.5,16.5-16.7,19.5-24.2c3.3-8,4.1-14.6,4.2-14.9c0-0.2,0.5-3,0.6-7.1l0-1.4C682.7,16.4,682.7,15.7,682.6,15"/>
	<path class="st1" d="M670.2,35.4c-0.1,0.1-0.3,0.2-0.5,0.2l-3.3,0c-0.4,0-0.7-0.3-0.7-0.7c0-0.4,0.3-0.7,0.7-0.7l0.5,0c0,0,0,0,0,0
		l0,0h0.7l2.1,0c0.4,0,0.7,0.3,0.7,0.7C670.4,35.1,670.4,35.3,670.2,35.4 M669.6,36.6c-0.1,0.1-0.3,0.2-0.5,0.2l-2,0
		c-0.3,0-0.6-0.2-0.7-0.7c0,0,0,0,0,0l3.3,0c0,0,0,0,0.1,0C669.7,36.3,669.7,36.5,669.6,36.6 M668.7,45.1l-1.3,0l-0.4-7.8l0,0l2,0
		c0,0,0,0,0,0L668.7,45.1z M669.6,46.2c0,0.3-0.3,0.6-0.6,0.6l-1.9,0l0,0.3v-0.3c-0.3,0-0.6-0.3-0.6-0.6c0-0.3,0.3-0.6,0.6-0.6
		l1.1,0l0.8,0C669.4,45.6,669.6,45.9,669.6,46.2 M668.1,51c-0.2,0-0.4-0.2-0.4-0.4l-0.1-3.3h1.1l-0.2,3.3
		C668.5,50.8,668.3,51,668.1,51 M665.4,32.5c0-0.4,0.2-0.8,0.4-1.2c0.2-0.5,0.5-1,0.4-1.6c0.3,0.1,0.7,0.4,1.1,0.7c0,0,0,0,0,0
		c-0.1,0.1-0.2,0.2-0.2,0.2c0,0-1.3,1.3-0.4,2.9h-0.2c-0.1,0-0.2,0-0.3,0C666,33.6,665.4,33.3,665.4,32.5 M668.3,29.7
		c0.1-0.2,0.1-0.4,0-0.6c0.5,0.5,1.2,1.3,1.2,2.2c0,1.2-0.7,2.1-1,2.4h-0.2c-0.2-0.3-0.7-1-0.2-1.8c0.1-0.2,0.5-0.8,0.6-1
		c0.1-0.2,0.1-0.3,0.1-0.3c-0.1,0.1-0.2,0.3-0.2,0.3c-0.1,0.1-0.6,0.6-0.7,0.7c-0.7,0.9-0.2,1.8,0,2.1l-0.6,0
		c-1.1-1.4,0.1-2.5,0.1-2.6c0.1-0.1,0.2-0.2,0.2-0.3C667.9,30.5,668.1,30.2,668.3,29.7 M669.9,30.2c0.2-0.3,0.4-0.4,0.6-0.6
		c-0.1,1.2,0.5,2.4,0.5,2.4c0.3,1-0.7,1.5-1,1.6c-0.1,0-0.2,0-0.3,0h-0.5c0.4-0.5,0.9-1.3,0.9-2.4C670.1,30.9,669.9,30.2,669.9,30.2
		 M670.6,34c0.6-0.4,1.2-1.1,0.9-2.1c0,0-0.7-1.4-0.4-2.6l0.1-0.4l-0.4,0c-0.1,0-0.6,0.1-1.2,0.8c-0.6-1-1.6-1.6-1.7-1.7l-1-0.6
		l0.6,1c0.1,0.2,0.4,0.7,0.3,1.1c-0.1,0.2-0.2,0.4-0.3,0.5c-0.7-0.7-1.7-0.9-1.7-1l-0.5-0.1l0.2,0.5c0.3,0.7,0.1,1.1-0.2,1.7
		c-0.2,0.4-0.4,0.9-0.4,1.4c0,0.7,0.4,1.2,0.7,1.4c-0.3,0.2-0.4,0.5-0.4,0.9c0,0.5,0.3,0.9,0.6,1.1c0.1,0.6,0.3,1,0.7,1.2l0.4,8
		c-0.5,0.1-0.8,0.5-0.8,1c0,0.5,0.4,1,0.9,1.1l0.2,3.3c0,0.5,0.4,0.9,0.9,0.9c0.5,0,0.9-0.4,0.9-0.9l0.2-3.3c0.5-0.1,1-0.5,1-1.1
		c0-0.5-0.4-1-0.9-1.1l0.4-8c0.1-0.1,0.2-0.1,0.3-0.2c0.2-0.2,0.4-0.6,0.4-1c0.1-0.1,0.2-0.1,0.3-0.2c0.2-0.2,0.4-0.5,0.4-0.9
		C671,34.5,670.8,34.2,670.6,34"/>
	<path class="st1" d="M649.1,35.6l-3.3,0c-0.4,0-0.7-0.3-0.7-0.7c0-0.2,0.1-0.4,0.2-0.5c0.1-0.1,0.3-0.2,0.5-0.2h0.5c0,0,0,0,0,0
		l0,0h0.7l1,0h1c0.4,0,0.7,0.3,0.7,0.7C649.9,35.3,649.5,35.6,649.1,35.6 M649,36.6c-0.1,0.1-0.3,0.2-0.5,0.2l-2,0
		c-0.3,0-0.6-0.3-0.7-0.7c0,0,0,0,0,0l3.3,0c0,0,0,0,0.1,0C649.2,36.3,649.1,36.5,649,36.6 M648.2,45.1l-1.3,0l-0.4-7.8c0,0,0,0,0,0
		l2,0c0,0,0,0,0,0L648.2,45.1z M649,46.2c0,0.2-0.1,0.3-0.2,0.4c-0.1,0.1-0.3,0.2-0.4,0.2h-1.9l0,0.3v-0.3c-0.3,0-0.6-0.3-0.6-0.6
		s0.3-0.6,0.6-0.6h1.1l0.8,0C648.8,45.6,649,45.9,649,46.2 M647.5,51c-0.2,0-0.4-0.2-0.4-0.4l-0.1-3.3l1.1,0l-0.2,3.3
		C647.9,50.8,647.7,51,647.5,51 M644.8,32.6c0-0.4,0.2-0.8,0.4-1.2c0.2-0.5,0.5-1,0.4-1.6c0.3,0.1,0.7,0.4,1,0.7c0,0,0,0,0,0
		c-0.1,0.1-0.2,0.2-0.2,0.2c0,0-1.3,1.3-0.4,2.9h-0.2c-0.1,0-0.2,0-0.2,0.1C645.5,33.7,644.8,33.5,644.8,32.6 M647.7,29.8
		c0.1-0.2,0.1-0.4,0-0.6c0.5,0.5,1.2,1.3,1.2,2.2c0,1.2-0.7,2.1-1,2.4h-0.2c-0.2-0.3-0.7-1-0.2-1.8c0.1-0.2,0.5-0.8,0.6-1
		c0.1-0.2,0.1-0.3,0.1-0.3c-0.1,0.1-0.2,0.3-0.2,0.3c-0.1,0.1-0.6,0.6-0.7,0.7c-0.7,0.9-0.2,1.8-0.1,2.1l-0.6,0
		c-1.1-1.4,0.1-2.5,0.1-2.6c0.1-0.1,0.2-0.2,0.2-0.2C647.3,30.5,647.5,30.3,647.7,29.8 M649.3,30.2c0.2-0.3,0.4-0.4,0.6-0.6
		c-0.1,1.2,0.5,2.4,0.5,2.4c0.3,1-0.7,1.5-1,1.6c-0.1,0-0.2,0-0.3,0h-0.5c0.4-0.5,0.9-1.3,0.9-2.4C649.5,30.9,649.3,30.2,649.3,30.2
		 M650,34c0.6-0.4,1.2-1.1,0.9-2.1c0,0-0.8-1.4-0.4-2.6l0.1-0.4l-0.4,0c-0.1,0-0.6,0.1-1.2,0.8c-0.6-1-1.6-1.6-1.7-1.7l-1-0.6l0.6,1
		c0.1,0.2,0.4,0.8,0.3,1.1c-0.1,0.2-0.2,0.4-0.3,0.5c-0.7-0.7-1.7-0.9-1.7-1l-0.5-0.1l0.2,0.5c0.3,0.7,0.1,1.1-0.2,1.7
		c-0.2,0.4-0.4,0.9-0.4,1.4c0,0.8,0.4,1.2,0.7,1.4c0,0,0,0-0.1,0c-0.2,0.2-0.4,0.5-0.4,0.9c0,0.5,0.3,0.9,0.6,1.1
		c0.1,0.6,0.3,1,0.7,1.2l0.4,8c-0.5,0.1-0.8,0.5-0.8,1c0,0.5,0.4,1,0.9,1.1l0.2,3.3c0,0.5,0.4,0.9,0.9,0.9c0.5,0,0.9-0.4,0.9-0.9
		l0.2-3.3c0.2,0,0.5-0.1,0.7-0.3c0.2-0.2,0.3-0.5,0.3-0.8c0-0.5-0.4-0.9-0.9-1.1l0.4-8c0.1-0.1,0.2-0.1,0.3-0.2
		c0.2-0.2,0.4-0.6,0.4-1c0.4-0.2,0.6-0.6,0.6-1.1C650.4,34.6,650.2,34.2,650,34"/>
	<path class="st1" d="M661,36.9c-0.2,0.2-0.5,0.3-0.8,0.3l-4.6,0c-0.6,0-1.1-0.5-1.1-1.1c0-0.6,0.5-1.1,1.1-1.1c0,0,3.1,0,3.1,0h1.5
		c0.6,0,1.1,0.5,1.1,1.1C661.3,36.4,661.2,36.7,661,36.9 M659.3,38.8l-2.8,0h0c-0.4,0-0.9-0.5-1-1c0,0,0.1,0,0.1,0l4.6,0
		c0.1,0,0.1,0,0.2,0C660.2,38.3,659.7,38.8,659.3,38.8 M658.9,50.5l-2.1,0l-0.5-11.3c0,0,0.1,0,0.1,0h0l2.8,0c0.1,0,0.1,0,0.2,0
		L658.9,50.5z M660.2,51.9c0,0.5-0.4,0.9-0.9,0.9l-2.7,0c-0.5,0-0.9-0.4-0.9-0.9c0-0.5,0.4-0.9,0.9-0.9l2,0h0.7
		C659.8,51,660.2,51.5,660.2,51.9 M658.6,58.1c0,0.2-0.1,0.4-0.2,0.5s-0.3,0.2-0.5,0.2h0c-0.2,0-0.4-0.1-0.5-0.2
		c-0.1-0.1-0.2-0.3-0.2-0.5l-0.2-4.7l1.8,0L658.6,58.1z M654.1,32.9c0-0.6,0.3-1.1,0.5-1.7c0.3-0.7,0.7-1.4,0.5-2.4
		c0.5,0.2,1.2,0.5,1.7,1.1c-0.1,0.1-0.1,0.1-0.2,0.2c-0.1,0.1-0.2,0.2-0.3,0.3c0,0-1.9,1.9-0.4,4.2h-0.2c-0.1,0-0.3,0-0.4,0.1
		C655.1,34.6,654.1,34.1,654.1,32.9 M657.9,28.9c0.1-0.4,0.1-0.8,0-1.2c0.8,0.7,2,1.9,2,3.4c0,1.7-1.1,3-1.5,3.4h-0.1
		c-0.2-0.3-0.5-0.9-0.5-1.5c0-1.2,0.6-1.8,0.6-1.8s-0.7,0.5-0.8,1.5c-0.1,0.5,0.1,1,0.4,1.7h-0.7c-0.3-0.4-1-1.5-0.2-2.7
		c0.1-0.2,0.9-1.2,0.9-1.3c0.1-0.2,0.1-0.4,0.1-0.4c-0.1,0.2-0.3,0.4-0.3,0.4c-0.2,0.2-0.8,0.8-1,1c-1.1,1.3-0.2,2.7,0,3.1h-0.4
		c-1.6-2.1,0.1-3.7,0.2-3.8c0.1-0.1,0.2-0.2,0.3-0.3C657.3,30,657.7,29.6,657.9,28.9 M661.3,29.2c-0.3,1.6,0.2,3,0.2,3
		c0.4,1.5-0.6,2.2-1,2.4c-0.1,0-0.2,0-0.3,0l-1.1,0c0.5-0.7,1.3-1.9,1.3-3.4c0-0.4-0.1-0.8-0.2-1.1C660.7,29.6,661,29.3,661.3,29.2
		 M661.1,34.8c0.5-0.4,1.3-1.3,0.9-2.8c0,0-0.6-1.5-0.1-3.2l0.1-0.4l-0.4,0c0,0-0.7,0.1-1.6,1c-0.8-1.7-2.5-2.7-2.6-2.8l-0.9-0.5
		l0.5,0.9c0,0,0.6,1,0.3,1.7c-0.1,0.3-0.2,0.5-0.4,0.7c-0.9-1-2.3-1.3-2.3-1.3l-0.5-0.1l0.2,0.5c0.4,1,0.1,1.7-0.3,2.4
		c-0.3,0.6-0.6,1.2-0.6,1.9c0,1,0.6,1.7,1,2c-0.4,0.3-0.6,0.8-0.6,1.3c0,0.6,0.4,1.2,0.9,1.4c0.1,0.6,0.4,1.2,1,1.5l0,0l0.5,11.4
		c-0.7,0.1-1.2,0.7-1.2,1.4c0,0.7,0.6,1.3,1.3,1.4l0.2,4.7c0,0.3,0.1,0.6,0.4,0.9c0.2,0.2,0.5,0.4,0.9,0.4h0c0.3,0,0.6-0.1,0.9-0.4
		c0.2-0.2,0.4-0.5,0.4-0.8l0.2-4.7c0.8,0,1.4-0.7,1.4-1.4c0-0.7-0.5-1.3-1.2-1.4l0.5-11.5h0c0.5-0.3,0.9-0.9,1-1.5
		c0.1-0.1,0.3-0.2,0.4-0.3c0.3-0.3,0.5-0.7,0.5-1.1C661.8,35.6,661.5,35.1,661.1,34.8"/>
</g>
</svg>
